M48
; DRILL file {KiCad 9.0.5-9.0.5~ubuntu24.04.1} date 2025-10-19T16:33:20+0200
; FORMAT={-:-/ absolute / metric / decimal}
; #@! TF.CreationDate,2025-10-19T16:33:20+02:00
; #@! TF.GenerationSoftware,Kicad,Pcbnew,9.0.5-9.0.5~ubuntu24.04.1
; #@! TF.FileFunction,Plated,1,2,PTH
FMAT,2
METRIC
; #@! TA.AperFunction,Plated,PTH,ComponentDrill
T1C1.000
%
G90
G05
T1
X120.0Y-75.38
X120.0Y-77.92
X120.0Y-80.46
X120.0Y-83.0
X120.0Y-97.0
X120.0Y-99.54
X120.0Y-102.08
X120.0Y-104.62
X120.025Y-116.2
X120.025Y-118.74
X120.025Y-121.28
X120.025Y-123.82
X135.2Y-76.84
X135.2Y-79.38
X135.2Y-81.92
X135.2Y-84.46
X135.2Y-87.0
X135.2Y-89.54
X135.2Y-92.08
X135.2Y-94.62
X135.2Y-97.16
X135.2Y-99.7
X135.2Y-102.24
X135.2Y-104.78
X135.2Y-107.32
X135.2Y-109.86
X135.2Y-112.4
X150.44Y-76.84
X150.44Y-79.38
X150.44Y-81.92
X150.44Y-84.46
X150.44Y-87.0
X150.44Y-89.54
X150.44Y-92.08
X150.44Y-94.62
X150.44Y-97.16
X150.44Y-99.7
X150.44Y-102.24
X150.44Y-104.78
X150.44Y-107.32
X150.44Y-109.86
X150.44Y-112.4
X160.0Y-114.8
X160.0Y-119.4
X160.0Y-124.0
X161.0Y-91.3
X161.0Y-93.84
X161.0Y-96.38
X161.0Y-98.92
X161.0Y-101.46
X161.0Y-104.0
M30
