%TF.GenerationSoftware,KiCad,Pcbnew,9.0.5-9.0.5~ubuntu24.04.1*%
%TF.CreationDate,2025-10-19T16:33:04+02:00*%
%TF.ProjectId,MultiClockArduino,4d756c74-6943-46c6-9f63-6b4172647569,0.1*%
%TF.SameCoordinates,Original*%
%TF.FileFunction,Soldermask,Bot*%
%TF.FilePolarity,Negative*%
%FSLAX46Y46*%
G04 Gerber Fmt 4.6, Leading zero omitted, Abs format (unit mm)*
G04 Created by KiCad (PCBNEW 9.0.5-9.0.5~ubuntu24.04.1) date 2025-10-19 16:33:04*
%MOMM*%
%LPD*%
G01*
G04 APERTURE LIST*
%ADD10R,1.700000X1.700000*%
%ADD11C,1.700000*%
%ADD12R,1.600000X1.600000*%
%ADD13O,1.600000X1.600000*%
G04 APERTURE END LIST*
D10*
%TO.C,J7*%
X160000000Y-124000000D03*
%TD*%
%TO.C,J6*%
X160000000Y-119400000D03*
%TD*%
%TO.C,J5*%
X160000000Y-114800000D03*
%TD*%
%TO.C,J4*%
X161000000Y-91300000D03*
D11*
X161000000Y-93840000D03*
X161000000Y-96380000D03*
X161000000Y-98920000D03*
X161000000Y-101460000D03*
X161000000Y-104000000D03*
%TD*%
D10*
%TO.C,J3*%
X120025000Y-116200000D03*
D11*
X120025000Y-118740000D03*
X120025000Y-121280000D03*
X120025000Y-123820000D03*
%TD*%
D10*
%TO.C,J2*%
X120000000Y-97000000D03*
D11*
X120000000Y-99540000D03*
X120000000Y-102080000D03*
X120000000Y-104620000D03*
%TD*%
D10*
%TO.C,J1*%
X120000000Y-75380000D03*
D11*
X120000000Y-77920000D03*
X120000000Y-80460000D03*
X120000000Y-83000000D03*
%TD*%
D12*
%TO.C,A1*%
X135200000Y-76840000D03*
D13*
X135200000Y-79380000D03*
X135200000Y-81920000D03*
X135200000Y-84460000D03*
X135200000Y-87000000D03*
X135200000Y-89540000D03*
X135200000Y-92080000D03*
X135200000Y-94620000D03*
X135200000Y-97160000D03*
X135200000Y-99700000D03*
X135200000Y-102240000D03*
X135200000Y-104780000D03*
X135200000Y-107320000D03*
X135200000Y-109860000D03*
X135200000Y-112400000D03*
X150440000Y-112400000D03*
X150440000Y-109860000D03*
X150440000Y-107320000D03*
X150440000Y-104780000D03*
X150440000Y-102240000D03*
X150440000Y-99700000D03*
X150440000Y-97160000D03*
X150440000Y-94620000D03*
X150440000Y-92080000D03*
X150440000Y-89540000D03*
X150440000Y-87000000D03*
X150440000Y-84460000D03*
X150440000Y-81920000D03*
X150440000Y-79380000D03*
X150440000Y-76840000D03*
%TD*%
M02*
