%TF.GenerationSoftware,KiCad,Pcbnew,9.0.5-9.0.5~ubuntu24.04.1*%
%TF.CreationDate,2025-10-19T16:33:04+02:00*%
%TF.ProjectId,MultiClockArduino,4d756c74-6943-46c6-9f63-6b4172647569,0.1*%
%TF.SameCoordinates,Original*%
%TF.FileFunction,Copper,L2,Bot*%
%TF.FilePolarity,Positive*%
%FSLAX46Y46*%
G04 Gerber Fmt 4.6, Leading zero omitted, Abs format (unit mm)*
G04 Created by KiCad (PCBNEW 9.0.5-9.0.5~ubuntu24.04.1) date 2025-10-19 16:33:04*
%MOMM*%
%LPD*%
G01*
G04 APERTURE LIST*
%TA.AperFunction,ComponentPad*%
%ADD10R,1.700000X1.700000*%
%TD*%
%TA.AperFunction,ComponentPad*%
%ADD11C,1.700000*%
%TD*%
%TA.AperFunction,ComponentPad*%
%ADD12R,1.600000X1.600000*%
%TD*%
%TA.AperFunction,ComponentPad*%
%ADD13O,1.600000X1.600000*%
%TD*%
%TA.AperFunction,Conductor*%
%ADD14C,0.200000*%
%TD*%
G04 APERTURE END LIST*
D10*
%TO.P,J7,1,Pin_1*%
%TO.N,GND1*%
X160000000Y-124000000D03*
%TD*%
%TO.P,J6,1,Pin_1*%
%TO.N,GND*%
X160000000Y-119400000D03*
%TD*%
%TO.P,J5,1,Pin_1*%
%TO.N,+5V*%
X160000000Y-114800000D03*
%TD*%
%TO.P,J4,1,Pin_1*%
%TO.N,unconnected-(J4-Pin_1-Pad1)*%
X161000000Y-91300000D03*
D11*
%TO.P,J4,2,Pin_2*%
%TO.N,unconnected-(J4-Pin_2-Pad2)*%
X161000000Y-93840000D03*
%TO.P,J4,3,Pin_3*%
%TO.N,/DS3231_SCL*%
X161000000Y-96380000D03*
%TO.P,J4,4,Pin_4*%
%TO.N,/DS3231_SDA*%
X161000000Y-98920000D03*
%TO.P,J4,5,Pin_5*%
%TO.N,+5V*%
X161000000Y-101460000D03*
%TO.P,J4,6,Pin_6*%
%TO.N,GND1*%
X161000000Y-104000000D03*
%TD*%
D10*
%TO.P,J3,1,Pin_1*%
%TO.N,GND*%
X120025000Y-116200000D03*
D11*
%TO.P,J3,2,Pin_2*%
%TO.N,+5V*%
X120025000Y-118740000D03*
%TO.P,J3,3,Pin_3*%
%TO.N,/CAN_GND*%
X120025000Y-121280000D03*
%TO.P,J3,4,Pin_4*%
%TO.N,/CAN_CLK*%
X120025000Y-123820000D03*
%TD*%
D10*
%TO.P,J2,1,Pin_1*%
%TO.N,GND*%
X120000000Y-97000000D03*
D11*
%TO.P,J2,2,Pin_2*%
%TO.N,+5V*%
X120000000Y-99540000D03*
%TO.P,J2,3,Pin_3*%
%TO.N,/GER_DAT*%
X120000000Y-102080000D03*
%TO.P,J2,4,Pin_4*%
%TO.N,/GER_CLK*%
X120000000Y-104620000D03*
%TD*%
D10*
%TO.P,J1,1,Pin_1*%
%TO.N,GND*%
X120000000Y-75380000D03*
D11*
%TO.P,J1,2,Pin_2*%
%TO.N,+5V*%
X120000000Y-77920000D03*
%TO.P,J1,3,Pin_3*%
%TO.N,/IND_DAT*%
X120000000Y-80460000D03*
%TO.P,J1,4,Pin_4*%
%TO.N,/IND_CLK*%
X120000000Y-83000000D03*
%TD*%
D12*
%TO.P,A1,1,D1/TX*%
%TO.N,unconnected-(A1-D1{slash}TX-Pad1)*%
X135200000Y-76840000D03*
D13*
%TO.P,A1,2,D0/RX*%
%TO.N,unconnected-(A1-D0{slash}RX-Pad2)*%
X135200000Y-79380000D03*
%TO.P,A1,3,~{RESET}*%
%TO.N,unconnected-(A1-~{RESET}-Pad3)*%
X135200000Y-81920000D03*
%TO.P,A1,4,GND*%
%TO.N,GND*%
X135200000Y-84460000D03*
%TO.P,A1,5,D2*%
%TO.N,/IND_DAT*%
X135200000Y-87000000D03*
%TO.P,A1,6,D3*%
%TO.N,/IND_CLK*%
X135200000Y-89540000D03*
%TO.P,A1,7,D4*%
%TO.N,/GER_DAT*%
X135200000Y-92080000D03*
%TO.P,A1,8,D5*%
%TO.N,/GER_CLK*%
X135200000Y-94620000D03*
%TO.P,A1,9,D6*%
%TO.N,/CAN_GND*%
X135200000Y-97160000D03*
%TO.P,A1,10,D7*%
%TO.N,/CAN_CLK*%
X135200000Y-99700000D03*
%TO.P,A1,11,D8*%
%TO.N,unconnected-(A1-D8-Pad11)*%
X135200000Y-102240000D03*
%TO.P,A1,12,D9*%
%TO.N,unconnected-(A1-D9-Pad12)*%
X135200000Y-104780000D03*
%TO.P,A1,13,D10*%
%TO.N,unconnected-(A1-D10-Pad13)*%
X135200000Y-107320000D03*
%TO.P,A1,14,D11*%
%TO.N,unconnected-(A1-D11-Pad14)*%
X135200000Y-109860000D03*
%TO.P,A1,15,D12*%
%TO.N,unconnected-(A1-D12-Pad15)*%
X135200000Y-112400000D03*
%TO.P,A1,16,D13*%
%TO.N,unconnected-(A1-D13-Pad16)*%
X150440000Y-112400000D03*
%TO.P,A1,17,3V3*%
%TO.N,unconnected-(A1-3V3-Pad17)*%
X150440000Y-109860000D03*
%TO.P,A1,18,AREF*%
%TO.N,unconnected-(A1-AREF-Pad18)*%
X150440000Y-107320000D03*
%TO.P,A1,19,A0*%
%TO.N,unconnected-(A1-A0-Pad19)*%
X150440000Y-104780000D03*
%TO.P,A1,20,A1*%
%TO.N,unconnected-(A1-A1-Pad20)*%
X150440000Y-102240000D03*
%TO.P,A1,21,A2*%
%TO.N,unconnected-(A1-A2-Pad21)*%
X150440000Y-99700000D03*
%TO.P,A1,22,A3*%
%TO.N,unconnected-(A1-A3-Pad22)*%
X150440000Y-97160000D03*
%TO.P,A1,23,A4*%
%TO.N,/DS3231_SDA*%
X150440000Y-94620000D03*
%TO.P,A1,24,A5*%
%TO.N,/DS3231_SCL*%
X150440000Y-92080000D03*
%TO.P,A1,25,A6*%
%TO.N,unconnected-(A1-A6-Pad25)*%
X150440000Y-89540000D03*
%TO.P,A1,26,A7*%
%TO.N,unconnected-(A1-A7-Pad26)*%
X150440000Y-87000000D03*
%TO.P,A1,27,+5V*%
%TO.N,unconnected-(A1-+5V-Pad27)*%
X150440000Y-84460000D03*
%TO.P,A1,28,~{RESET}*%
%TO.N,unconnected-(A1-~{RESET}-Pad28)*%
X150440000Y-81920000D03*
%TO.P,A1,29,GND*%
%TO.N,GND1*%
X150440000Y-79380000D03*
%TO.P,A1,30,VIN*%
%TO.N,+5V*%
X150440000Y-76840000D03*
%TD*%
D14*
%TO.N,GND1*%
X160000000Y-124000000D02*
X163000000Y-124000000D01*
X163000000Y-124000000D02*
X165000000Y-122000000D01*
X165000000Y-122000000D02*
X165000000Y-108000000D01*
X165000000Y-108000000D02*
X161000000Y-104000000D01*
%TO.N,GND*%
X129000000Y-94000000D02*
X129000000Y-121000000D01*
X129000000Y-121000000D02*
X132000000Y-124000000D01*
X132000000Y-124000000D02*
X154000000Y-124000000D01*
X154000000Y-124000000D02*
X158600000Y-119400000D01*
X158600000Y-119400000D02*
X160000000Y-119400000D01*
%TO.N,GND1*%
X161000000Y-104000000D02*
X155000000Y-98000000D01*
X155000000Y-98000000D02*
X155000000Y-80000000D01*
X155000000Y-80000000D02*
X154380000Y-79380000D01*
X154380000Y-79380000D02*
X150440000Y-79380000D01*
%TO.N,GND*%
X120000000Y-75380000D02*
X122460000Y-75380000D01*
X122460000Y-75380000D02*
X131540000Y-84460000D01*
X120000000Y-97000000D02*
X126000000Y-97000000D01*
X131540000Y-84460000D02*
X135200000Y-84460000D01*
X126000000Y-97000000D02*
X129000000Y-94000000D01*
X129000000Y-94000000D02*
X129000000Y-87000000D01*
X129000000Y-87000000D02*
X131540000Y-84460000D01*
X120025000Y-116200000D02*
X117200000Y-116200000D01*
X117200000Y-116200000D02*
X115000000Y-114000000D01*
X115000000Y-114000000D02*
X115000000Y-97000000D01*
X115000000Y-97000000D02*
X120000000Y-97000000D01*
%TD*%
%TA.AperFunction,Conductor*%
%TO.N,GND*%
G36*
X167442539Y-69520185D02*
G01*
X167488294Y-69572989D01*
X167499500Y-69624500D01*
X167499500Y-129375500D01*
X167479815Y-129442539D01*
X167427011Y-129488294D01*
X167375500Y-129499500D01*
X110624500Y-129499500D01*
X110557461Y-129479815D01*
X110511706Y-129427011D01*
X110500500Y-129375500D01*
X110500500Y-118633713D01*
X118674500Y-118633713D01*
X118674500Y-118846287D01*
X118707754Y-119056243D01*
X118756740Y-119207007D01*
X118773444Y-119258414D01*
X118869951Y-119447820D01*
X118994890Y-119619786D01*
X119145213Y-119770109D01*
X119317182Y-119895050D01*
X119325946Y-119899516D01*
X119376742Y-119947491D01*
X119393536Y-120015312D01*
X119370998Y-120081447D01*
X119325946Y-120120484D01*
X119317182Y-120124949D01*
X119145213Y-120249890D01*
X118994890Y-120400213D01*
X118869951Y-120572179D01*
X118773444Y-120761585D01*
X118707753Y-120963760D01*
X118674500Y-121173713D01*
X118674500Y-121386287D01*
X118707754Y-121596243D01*
X118741435Y-121699903D01*
X118773444Y-121798414D01*
X118869951Y-121987820D01*
X118994890Y-122159786D01*
X119145213Y-122310109D01*
X119317182Y-122435050D01*
X119325946Y-122439516D01*
X119376742Y-122487491D01*
X119393536Y-122555312D01*
X119370998Y-122621447D01*
X119325946Y-122660484D01*
X119317182Y-122664949D01*
X119145213Y-122789890D01*
X118994890Y-122940213D01*
X118869951Y-123112179D01*
X118773444Y-123301585D01*
X118707753Y-123503760D01*
X118674500Y-123713713D01*
X118674500Y-123926286D01*
X118707753Y-124136239D01*
X118773444Y-124338414D01*
X118869951Y-124527820D01*
X118994890Y-124699786D01*
X119145213Y-124850109D01*
X119317179Y-124975048D01*
X119317181Y-124975049D01*
X119317184Y-124975051D01*
X119506588Y-125071557D01*
X119708757Y-125137246D01*
X119918713Y-125170500D01*
X119918714Y-125170500D01*
X120131286Y-125170500D01*
X120131287Y-125170500D01*
X120341243Y-125137246D01*
X120543412Y-125071557D01*
X120732816Y-124975051D01*
X120756998Y-124957482D01*
X120904786Y-124850109D01*
X120904788Y-124850106D01*
X120904792Y-124850104D01*
X121055104Y-124699792D01*
X121055106Y-124699788D01*
X121055109Y-124699786D01*
X121180048Y-124527820D01*
X121180047Y-124527820D01*
X121180051Y-124527816D01*
X121276557Y-124338412D01*
X121342246Y-124136243D01*
X121375500Y-123926287D01*
X121375500Y-123713713D01*
X121342246Y-123503757D01*
X121276557Y-123301588D01*
X121180051Y-123112184D01*
X121180049Y-123112181D01*
X121180048Y-123112179D01*
X121055109Y-122940213D01*
X120904786Y-122789890D01*
X120732820Y-122664951D01*
X120732115Y-122664591D01*
X120724054Y-122660485D01*
X120673259Y-122612512D01*
X120656463Y-122544692D01*
X120678999Y-122478556D01*
X120724054Y-122439515D01*
X120732816Y-122435051D01*
X120824119Y-122368716D01*
X120904786Y-122310109D01*
X120904788Y-122310106D01*
X120904792Y-122310104D01*
X121055104Y-122159792D01*
X121055106Y-122159788D01*
X121055109Y-122159786D01*
X121180048Y-121987820D01*
X121180047Y-121987820D01*
X121180051Y-121987816D01*
X121276557Y-121798412D01*
X121342246Y-121596243D01*
X121375500Y-121386287D01*
X121375500Y-121173713D01*
X121342246Y-120963757D01*
X121276557Y-120761588D01*
X121180051Y-120572184D01*
X121180049Y-120572181D01*
X121180048Y-120572179D01*
X121055109Y-120400213D01*
X120904786Y-120249890D01*
X120732820Y-120124951D01*
X120732115Y-120124591D01*
X120724054Y-120120485D01*
X120673259Y-120072512D01*
X120656463Y-120004692D01*
X120678999Y-119938556D01*
X120724054Y-119899515D01*
X120732816Y-119895051D01*
X120772905Y-119865925D01*
X120904786Y-119770109D01*
X120904788Y-119770106D01*
X120904792Y-119770104D01*
X121055104Y-119619792D01*
X121069309Y-119600239D01*
X121123425Y-119525756D01*
X121123427Y-119525753D01*
X121166966Y-119465826D01*
X121180051Y-119447816D01*
X121276557Y-119258412D01*
X121342246Y-119056243D01*
X121375500Y-118846287D01*
X121375500Y-118633713D01*
X121354663Y-118502155D01*
X158650000Y-118502155D01*
X158650000Y-119150000D01*
X159566988Y-119150000D01*
X159534075Y-119207007D01*
X159500000Y-119334174D01*
X159500000Y-119465826D01*
X159534075Y-119592993D01*
X159566988Y-119650000D01*
X158650000Y-119650000D01*
X158650000Y-120297844D01*
X158656401Y-120357372D01*
X158656403Y-120357379D01*
X158706645Y-120492086D01*
X158706649Y-120492093D01*
X158792809Y-120607187D01*
X158792812Y-120607190D01*
X158907906Y-120693350D01*
X158907913Y-120693354D01*
X159042620Y-120743596D01*
X159042627Y-120743598D01*
X159102155Y-120749999D01*
X159102172Y-120750000D01*
X159750000Y-120750000D01*
X159750000Y-119833012D01*
X159807007Y-119865925D01*
X159934174Y-119900000D01*
X160065826Y-119900000D01*
X160192993Y-119865925D01*
X160250000Y-119833012D01*
X160250000Y-120750000D01*
X160897828Y-120750000D01*
X160897844Y-120749999D01*
X160957372Y-120743598D01*
X160957379Y-120743596D01*
X161092086Y-120693354D01*
X161092093Y-120693350D01*
X161207187Y-120607190D01*
X161207190Y-120607187D01*
X161293350Y-120492093D01*
X161293354Y-120492086D01*
X161343596Y-120357379D01*
X161343598Y-120357372D01*
X161349999Y-120297844D01*
X161350000Y-120297827D01*
X161350000Y-119650000D01*
X160433012Y-119650000D01*
X160465925Y-119592993D01*
X160500000Y-119465826D01*
X160500000Y-119334174D01*
X160465925Y-119207007D01*
X160433012Y-119150000D01*
X161350000Y-119150000D01*
X161350000Y-118502172D01*
X161349999Y-118502155D01*
X161343598Y-118442627D01*
X161343596Y-118442620D01*
X161293354Y-118307913D01*
X161293350Y-118307906D01*
X161207190Y-118192812D01*
X161207187Y-118192809D01*
X161092093Y-118106649D01*
X161092086Y-118106645D01*
X160957379Y-118056403D01*
X160957372Y-118056401D01*
X160897844Y-118050000D01*
X160250000Y-118050000D01*
X160250000Y-118966988D01*
X160192993Y-118934075D01*
X160065826Y-118900000D01*
X159934174Y-118900000D01*
X159807007Y-118934075D01*
X159750000Y-118966988D01*
X159750000Y-118050000D01*
X159102155Y-118050000D01*
X159042627Y-118056401D01*
X159042620Y-118056403D01*
X158907913Y-118106645D01*
X158907906Y-118106649D01*
X158792812Y-118192809D01*
X158792809Y-118192812D01*
X158706649Y-118307906D01*
X158706645Y-118307913D01*
X158656403Y-118442620D01*
X158656401Y-118442627D01*
X158650000Y-118502155D01*
X121354663Y-118502155D01*
X121342246Y-118423757D01*
X121276557Y-118221588D01*
X121180051Y-118032184D01*
X121180049Y-118032181D01*
X121180048Y-118032179D01*
X121055109Y-117860213D01*
X120941181Y-117746285D01*
X120907696Y-117684962D01*
X120912680Y-117615270D01*
X120954552Y-117559337D01*
X120985529Y-117542422D01*
X121117086Y-117493354D01*
X121117093Y-117493350D01*
X121232187Y-117407190D01*
X121232190Y-117407187D01*
X121318350Y-117292093D01*
X121318354Y-117292086D01*
X121368596Y-117157379D01*
X121368598Y-117157372D01*
X121374999Y-117097844D01*
X121375000Y-117097827D01*
X121375000Y-116450000D01*
X120458012Y-116450000D01*
X120490925Y-116392993D01*
X120525000Y-116265826D01*
X120525000Y-116134174D01*
X120490925Y-116007007D01*
X120458012Y-115950000D01*
X121375000Y-115950000D01*
X121375000Y-115302172D01*
X121374999Y-115302155D01*
X121368598Y-115242627D01*
X121368596Y-115242620D01*
X121318354Y-115107913D01*
X121318350Y-115107906D01*
X121232190Y-114992812D01*
X121232187Y-114992809D01*
X121117093Y-114906649D01*
X121117086Y-114906645D01*
X120982379Y-114856403D01*
X120982372Y-114856401D01*
X120922844Y-114850000D01*
X120275000Y-114850000D01*
X120275000Y-115766988D01*
X120217993Y-115734075D01*
X120090826Y-115700000D01*
X119959174Y-115700000D01*
X119832007Y-115734075D01*
X119775000Y-115766988D01*
X119775000Y-114850000D01*
X119127155Y-114850000D01*
X119067627Y-114856401D01*
X119067620Y-114856403D01*
X118932913Y-114906645D01*
X118932906Y-114906649D01*
X118817812Y-114992809D01*
X118817809Y-114992812D01*
X118731649Y-115107906D01*
X118731645Y-115107913D01*
X118681403Y-115242620D01*
X118681401Y-115242627D01*
X118675000Y-115302155D01*
X118675000Y-115950000D01*
X119591988Y-115950000D01*
X119559075Y-116007007D01*
X119525000Y-116134174D01*
X119525000Y-116265826D01*
X119559075Y-116392993D01*
X119591988Y-116450000D01*
X118675000Y-116450000D01*
X118675000Y-117097844D01*
X118681401Y-117157372D01*
X118681403Y-117157379D01*
X118731645Y-117292086D01*
X118731649Y-117292093D01*
X118817809Y-117407187D01*
X118817812Y-117407190D01*
X118932906Y-117493350D01*
X118932913Y-117493354D01*
X119064470Y-117542422D01*
X119120404Y-117584293D01*
X119144821Y-117649758D01*
X119129969Y-117718031D01*
X119108819Y-117746285D01*
X118994889Y-117860215D01*
X118869951Y-118032179D01*
X118773444Y-118221585D01*
X118707753Y-118423760D01*
X118704766Y-118442620D01*
X118674500Y-118633713D01*
X110500500Y-118633713D01*
X110500500Y-113902135D01*
X158649500Y-113902135D01*
X158649500Y-115697870D01*
X158649501Y-115697876D01*
X158655908Y-115757483D01*
X158706202Y-115892328D01*
X158706206Y-115892335D01*
X158792452Y-116007544D01*
X158792455Y-116007547D01*
X158907664Y-116093793D01*
X158907671Y-116093797D01*
X159042517Y-116144091D01*
X159042516Y-116144091D01*
X159049444Y-116144835D01*
X159102127Y-116150500D01*
X160897872Y-116150499D01*
X160957483Y-116144091D01*
X161092331Y-116093796D01*
X161207546Y-116007546D01*
X161293796Y-115892331D01*
X161344091Y-115757483D01*
X161350500Y-115697873D01*
X161350499Y-113902128D01*
X161344091Y-113842517D01*
X161293796Y-113707669D01*
X161293795Y-113707668D01*
X161293793Y-113707664D01*
X161207547Y-113592455D01*
X161207544Y-113592452D01*
X161092335Y-113506206D01*
X161092328Y-113506202D01*
X160957482Y-113455908D01*
X160957483Y-113455908D01*
X160897883Y-113449501D01*
X160897881Y-113449500D01*
X160897873Y-113449500D01*
X160897864Y-113449500D01*
X159102129Y-113449500D01*
X159102123Y-113449501D01*
X159042516Y-113455908D01*
X158907671Y-113506202D01*
X158907664Y-113506206D01*
X158792455Y-113592452D01*
X158792452Y-113592455D01*
X158706206Y-113707664D01*
X158706202Y-113707671D01*
X158655908Y-113842517D01*
X158649501Y-113902116D01*
X158649501Y-113902123D01*
X158649500Y-113902135D01*
X110500500Y-113902135D01*
X110500500Y-99433713D01*
X118649500Y-99433713D01*
X118649500Y-99646287D01*
X118682754Y-99856243D01*
X118713251Y-99950104D01*
X118748444Y-100058414D01*
X118844951Y-100247820D01*
X118969890Y-100419786D01*
X119120213Y-100570109D01*
X119292182Y-100695050D01*
X119300946Y-100699516D01*
X119351742Y-100747491D01*
X119368536Y-100815312D01*
X119345998Y-100881447D01*
X119300946Y-100920484D01*
X119292182Y-100924949D01*
X119120213Y-101049890D01*
X118969890Y-101200213D01*
X118844951Y-101372179D01*
X118748444Y-101561585D01*
X118682753Y-101763760D01*
X118680777Y-101776239D01*
X118649500Y-101973713D01*
X118649500Y-102186287D01*
X118682754Y-102396243D01*
X118713251Y-102490104D01*
X118748444Y-102598414D01*
X118844951Y-102787820D01*
X118969890Y-102959786D01*
X119120213Y-103110109D01*
X119292182Y-103235050D01*
X119300946Y-103239516D01*
X119351742Y-103287491D01*
X119368536Y-103355312D01*
X119345998Y-103421447D01*
X119300946Y-103460484D01*
X119292182Y-103464949D01*
X119120213Y-103589890D01*
X118969890Y-103740213D01*
X118844951Y-103912179D01*
X118748444Y-104101585D01*
X118682753Y-104303760D01*
X118655558Y-104475465D01*
X118649500Y-104513713D01*
X118649500Y-104726287D01*
X118682754Y-104936243D01*
X118713251Y-105030104D01*
X118748444Y-105138414D01*
X118844951Y-105327820D01*
X118969890Y-105499786D01*
X119120213Y-105650109D01*
X119292179Y-105775048D01*
X119292181Y-105775049D01*
X119292184Y-105775051D01*
X119481588Y-105871557D01*
X119683757Y-105937246D01*
X119893713Y-105970500D01*
X119893714Y-105970500D01*
X120106286Y-105970500D01*
X120106287Y-105970500D01*
X120316243Y-105937246D01*
X120518412Y-105871557D01*
X120707816Y-105775051D01*
X120729789Y-105759086D01*
X120879786Y-105650109D01*
X120879788Y-105650106D01*
X120879792Y-105650104D01*
X121030104Y-105499792D01*
X121030106Y-105499788D01*
X121030109Y-105499786D01*
X121155048Y-105327820D01*
X121155047Y-105327820D01*
X121155051Y-105327816D01*
X121251557Y-105138412D01*
X121317246Y-104936243D01*
X121350500Y-104726287D01*
X121350500Y-104513713D01*
X121317246Y-104303757D01*
X121251557Y-104101588D01*
X121155051Y-103912184D01*
X121155049Y-103912181D01*
X121155048Y-103912179D01*
X121030109Y-103740213D01*
X120879786Y-103589890D01*
X120707820Y-103464951D01*
X120707115Y-103464591D01*
X120699054Y-103460485D01*
X120648259Y-103412512D01*
X120631463Y-103344692D01*
X120653999Y-103278556D01*
X120699054Y-103239515D01*
X120707816Y-103235051D01*
X120729789Y-103219086D01*
X120879786Y-103110109D01*
X120879788Y-103110106D01*
X120879792Y-103110104D01*
X121030104Y-102959792D01*
X121030106Y-102959788D01*
X121030109Y-102959786D01*
X121155048Y-102787820D01*
X121155047Y-102787820D01*
X121155051Y-102787816D01*
X121251557Y-102598412D01*
X121317246Y-102396243D01*
X121350500Y-102186287D01*
X121350500Y-101973713D01*
X121317246Y-101763757D01*
X121251557Y-101561588D01*
X121155051Y-101372184D01*
X121155049Y-101372181D01*
X121155048Y-101372179D01*
X121030109Y-101200213D01*
X120879786Y-101049890D01*
X120707820Y-100924951D01*
X120707115Y-100924591D01*
X120699054Y-100920485D01*
X120648259Y-100872512D01*
X120631463Y-100804692D01*
X120653999Y-100738556D01*
X120699054Y-100699515D01*
X120707816Y-100695051D01*
X120729789Y-100679086D01*
X120879786Y-100570109D01*
X120879788Y-100570106D01*
X120879792Y-100570104D01*
X121030104Y-100419792D01*
X121030106Y-100419788D01*
X121030109Y-100419786D01*
X121155048Y-100247820D01*
X121155047Y-100247820D01*
X121155051Y-100247816D01*
X121251557Y-100058412D01*
X121317246Y-99856243D01*
X121350500Y-99646287D01*
X121350500Y-99433713D01*
X121317246Y-99223757D01*
X121251557Y-99021588D01*
X121155051Y-98832184D01*
X121155049Y-98832181D01*
X121155048Y-98832179D01*
X121030109Y-98660213D01*
X120916181Y-98546285D01*
X120882696Y-98484962D01*
X120887680Y-98415270D01*
X120929552Y-98359337D01*
X120960529Y-98342422D01*
X121092086Y-98293354D01*
X121092093Y-98293350D01*
X121207187Y-98207190D01*
X121207190Y-98207187D01*
X121293350Y-98092093D01*
X121293354Y-98092086D01*
X121343596Y-97957379D01*
X121343598Y-97957372D01*
X121349999Y-97897844D01*
X121350000Y-97897827D01*
X121350000Y-97250000D01*
X120433012Y-97250000D01*
X120465925Y-97192993D01*
X120500000Y-97065826D01*
X120500000Y-96934174D01*
X120465925Y-96807007D01*
X120433012Y-96750000D01*
X121350000Y-96750000D01*
X121350000Y-96102172D01*
X121349999Y-96102155D01*
X121343598Y-96042627D01*
X121343596Y-96042620D01*
X121293354Y-95907913D01*
X121293350Y-95907906D01*
X121207190Y-95792812D01*
X121207187Y-95792809D01*
X121092093Y-95706649D01*
X121092086Y-95706645D01*
X120957379Y-95656403D01*
X120957372Y-95656401D01*
X120897844Y-95650000D01*
X120250000Y-95650000D01*
X120250000Y-96566988D01*
X120192993Y-96534075D01*
X120065826Y-96500000D01*
X119934174Y-96500000D01*
X119807007Y-96534075D01*
X119750000Y-96566988D01*
X119750000Y-95650000D01*
X119102155Y-95650000D01*
X119042627Y-95656401D01*
X119042620Y-95656403D01*
X118907913Y-95706645D01*
X118907906Y-95706649D01*
X118792812Y-95792809D01*
X118792809Y-95792812D01*
X118706649Y-95907906D01*
X118706645Y-95907913D01*
X118656403Y-96042620D01*
X118656401Y-96042627D01*
X118650000Y-96102155D01*
X118650000Y-96750000D01*
X119566988Y-96750000D01*
X119534075Y-96807007D01*
X119500000Y-96934174D01*
X119500000Y-97065826D01*
X119534075Y-97192993D01*
X119566988Y-97250000D01*
X118650000Y-97250000D01*
X118650000Y-97897844D01*
X118656401Y-97957372D01*
X118656403Y-97957379D01*
X118706645Y-98092086D01*
X118706649Y-98092093D01*
X118792809Y-98207187D01*
X118792812Y-98207190D01*
X118907906Y-98293350D01*
X118907913Y-98293354D01*
X119039470Y-98342422D01*
X119095404Y-98384293D01*
X119119821Y-98449758D01*
X119104969Y-98518031D01*
X119083819Y-98546285D01*
X118969889Y-98660215D01*
X118844951Y-98832179D01*
X118748444Y-99021585D01*
X118682753Y-99223760D01*
X118680777Y-99236239D01*
X118649500Y-99433713D01*
X110500500Y-99433713D01*
X110500500Y-77813713D01*
X118649500Y-77813713D01*
X118649500Y-78026286D01*
X118667589Y-78140499D01*
X118682754Y-78236243D01*
X118732072Y-78388028D01*
X118748444Y-78438414D01*
X118844951Y-78627820D01*
X118969890Y-78799786D01*
X119120213Y-78950109D01*
X119292182Y-79075050D01*
X119300946Y-79079516D01*
X119351742Y-79127491D01*
X119368536Y-79195312D01*
X119345998Y-79261447D01*
X119300946Y-79300484D01*
X119292182Y-79304949D01*
X119120213Y-79429890D01*
X118969890Y-79580213D01*
X118844951Y-79752179D01*
X118748444Y-79941585D01*
X118682753Y-80143760D01*
X118669535Y-80227219D01*
X118649500Y-80353713D01*
X118649500Y-80566287D01*
X118682754Y-80776243D01*
X118732072Y-80928028D01*
X118748444Y-80978414D01*
X118844951Y-81167820D01*
X118969890Y-81339786D01*
X119120213Y-81490109D01*
X119292182Y-81615050D01*
X119300946Y-81619516D01*
X119351742Y-81667491D01*
X119368536Y-81735312D01*
X119345998Y-81801447D01*
X119300946Y-81840484D01*
X119292182Y-81844949D01*
X119120213Y-81969890D01*
X118969890Y-82120213D01*
X118844951Y-82292179D01*
X118748444Y-82481585D01*
X118682753Y-82683760D01*
X118669535Y-82767219D01*
X118649500Y-82893713D01*
X118649500Y-83106287D01*
X118652499Y-83125220D01*
X118680302Y-83300765D01*
X118682754Y-83316243D01*
X118732072Y-83468028D01*
X118748444Y-83518414D01*
X118844951Y-83707820D01*
X118969890Y-83879786D01*
X119120213Y-84030109D01*
X119292179Y-84155048D01*
X119292181Y-84155049D01*
X119292184Y-84155051D01*
X119481588Y-84251557D01*
X119683757Y-84317246D01*
X119893713Y-84350500D01*
X119893714Y-84350500D01*
X120106286Y-84350500D01*
X120106287Y-84350500D01*
X120316243Y-84317246D01*
X120518412Y-84251557D01*
X120707816Y-84155051D01*
X120838780Y-84059901D01*
X120879786Y-84030109D01*
X120879788Y-84030106D01*
X120879792Y-84030104D01*
X121030104Y-83879792D01*
X121030106Y-83879788D01*
X121030109Y-83879786D01*
X121155048Y-83707820D01*
X121155047Y-83707820D01*
X121155051Y-83707816D01*
X121251557Y-83518412D01*
X121317246Y-83316243D01*
X121350500Y-83106287D01*
X121350500Y-82893713D01*
X121317246Y-82683757D01*
X121251557Y-82481588D01*
X121155051Y-82292184D01*
X121155049Y-82292181D01*
X121155048Y-82292179D01*
X121030109Y-82120213D01*
X120879786Y-81969890D01*
X120707820Y-81844951D01*
X120707115Y-81844591D01*
X120699054Y-81840485D01*
X120648259Y-81792512D01*
X120631463Y-81724692D01*
X120653999Y-81658556D01*
X120699054Y-81619515D01*
X120707816Y-81615051D01*
X120729789Y-81599086D01*
X120879786Y-81490109D01*
X120879788Y-81490106D01*
X120879792Y-81490104D01*
X121030104Y-81339792D01*
X121030106Y-81339788D01*
X121030109Y-81339786D01*
X121155048Y-81167820D01*
X121155047Y-81167820D01*
X121155051Y-81167816D01*
X121251557Y-80978412D01*
X121317246Y-80776243D01*
X121350500Y-80566287D01*
X121350500Y-80353713D01*
X121317246Y-80143757D01*
X121251557Y-79941588D01*
X121155051Y-79752184D01*
X121155049Y-79752181D01*
X121155048Y-79752179D01*
X121030109Y-79580213D01*
X120879786Y-79429890D01*
X120707820Y-79304951D01*
X120707115Y-79304591D01*
X120699054Y-79300485D01*
X120648259Y-79252512D01*
X120631463Y-79184692D01*
X120653999Y-79118556D01*
X120699054Y-79079515D01*
X120707816Y-79075051D01*
X120795582Y-79011286D01*
X120879786Y-78950109D01*
X120879788Y-78950106D01*
X120879792Y-78950104D01*
X121030104Y-78799792D01*
X121030106Y-78799788D01*
X121030109Y-78799786D01*
X121155048Y-78627820D01*
X121155047Y-78627820D01*
X121155051Y-78627816D01*
X121251557Y-78438412D01*
X121317246Y-78236243D01*
X121350500Y-78026287D01*
X121350500Y-77813713D01*
X121317246Y-77603757D01*
X121251557Y-77401588D01*
X121155051Y-77212184D01*
X121155049Y-77212181D01*
X121155048Y-77212179D01*
X121030109Y-77040213D01*
X120916181Y-76926285D01*
X120882696Y-76864962D01*
X120887680Y-76795270D01*
X120929552Y-76739337D01*
X120960529Y-76722422D01*
X121092086Y-76673354D01*
X121092093Y-76673350D01*
X121207187Y-76587190D01*
X121207190Y-76587187D01*
X121293350Y-76472093D01*
X121293354Y-76472086D01*
X121343596Y-76337379D01*
X121343598Y-76337372D01*
X121349999Y-76277844D01*
X121350000Y-76277827D01*
X121350000Y-75992135D01*
X133899500Y-75992135D01*
X133899500Y-77687870D01*
X133899501Y-77687876D01*
X133905908Y-77747483D01*
X133956202Y-77882328D01*
X133956206Y-77882335D01*
X134042452Y-77997544D01*
X134042455Y-77997547D01*
X134157664Y-78083793D01*
X134157671Y-78083797D01*
X134202618Y-78100561D01*
X134292517Y-78134091D01*
X134329441Y-78138060D01*
X134393989Y-78164796D01*
X134433838Y-78222188D01*
X134436333Y-78292013D01*
X134400681Y-78352102D01*
X134389071Y-78361666D01*
X134352784Y-78388030D01*
X134208028Y-78532786D01*
X134087715Y-78698386D01*
X133994781Y-78880776D01*
X133931522Y-79075465D01*
X133899500Y-79277648D01*
X133899500Y-79482351D01*
X133931522Y-79684534D01*
X133994781Y-79879223D01*
X134087715Y-80061613D01*
X134208028Y-80227213D01*
X134352786Y-80371971D01*
X134507749Y-80484556D01*
X134518390Y-80492287D01*
X134609840Y-80538883D01*
X134611080Y-80539515D01*
X134661876Y-80587490D01*
X134678671Y-80655311D01*
X134656134Y-80721446D01*
X134611080Y-80760485D01*
X134518386Y-80807715D01*
X134352786Y-80928028D01*
X134208028Y-81072786D01*
X134087715Y-81238386D01*
X133994781Y-81420776D01*
X133931522Y-81615465D01*
X133899500Y-81817648D01*
X133899500Y-82022351D01*
X133931522Y-82224534D01*
X133994781Y-82419223D01*
X134087715Y-82601613D01*
X134208028Y-82767213D01*
X134352786Y-82911971D01*
X134507749Y-83024556D01*
X134518390Y-83032287D01*
X134590424Y-83068990D01*
X134611629Y-83079795D01*
X134662425Y-83127770D01*
X134679220Y-83195591D01*
X134656682Y-83261726D01*
X134611629Y-83300765D01*
X134518650Y-83348140D01*
X134353105Y-83468417D01*
X134353104Y-83468417D01*
X134208417Y-83613104D01*
X134208417Y-83613105D01*
X134088140Y-83778650D01*
X133995244Y-83960970D01*
X133932009Y-84155586D01*
X133923391Y-84210000D01*
X134766988Y-84210000D01*
X134734075Y-84267007D01*
X134700000Y-84394174D01*
X134700000Y-84525826D01*
X134734075Y-84652993D01*
X134766988Y-84710000D01*
X133923391Y-84710000D01*
X133932009Y-84764413D01*
X133995244Y-84959029D01*
X134088140Y-85141349D01*
X134208417Y-85306894D01*
X134208417Y-85306895D01*
X134353104Y-85451582D01*
X134518652Y-85571861D01*
X134611628Y-85619234D01*
X134662425Y-85667208D01*
X134679220Y-85735029D01*
X134656683Y-85801164D01*
X134611630Y-85840203D01*
X134518388Y-85887713D01*
X134352786Y-86008028D01*
X134208028Y-86152786D01*
X134087715Y-86318386D01*
X133994781Y-86500776D01*
X133931522Y-86695465D01*
X133899500Y-86897648D01*
X133899500Y-87102351D01*
X133931522Y-87304534D01*
X133994781Y-87499223D01*
X134087715Y-87681613D01*
X134208028Y-87847213D01*
X134352786Y-87991971D01*
X134507749Y-88104556D01*
X134518390Y-88112287D01*
X134609840Y-88158883D01*
X134611080Y-88159515D01*
X134661876Y-88207490D01*
X134678671Y-88275311D01*
X134656134Y-88341446D01*
X134611080Y-88380485D01*
X134518386Y-88427715D01*
X134352786Y-88548028D01*
X134208028Y-88692786D01*
X134087715Y-88858386D01*
X133994781Y-89040776D01*
X133931522Y-89235465D01*
X133899500Y-89437648D01*
X133899500Y-89642351D01*
X133931522Y-89844534D01*
X133994781Y-90039223D01*
X134021905Y-90092455D01*
X134080607Y-90207664D01*
X134087715Y-90221613D01*
X134208028Y-90387213D01*
X134352786Y-90531971D01*
X134507749Y-90644556D01*
X134518390Y-90652287D01*
X134609840Y-90698883D01*
X134611080Y-90699515D01*
X134661876Y-90747490D01*
X134678671Y-90815311D01*
X134656134Y-90881446D01*
X134611080Y-90920485D01*
X134518386Y-90967715D01*
X134352786Y-91088028D01*
X134208028Y-91232786D01*
X134087715Y-91398386D01*
X133994781Y-91580776D01*
X133931522Y-91775465D01*
X133899500Y-91977648D01*
X133899500Y-92182351D01*
X133931522Y-92384534D01*
X133994781Y-92579223D01*
X134048652Y-92684949D01*
X134081871Y-92750145D01*
X134087715Y-92761613D01*
X134208028Y-92927213D01*
X134352786Y-93071971D01*
X134507749Y-93184556D01*
X134518390Y-93192287D01*
X134609840Y-93238883D01*
X134611080Y-93239515D01*
X134661876Y-93287490D01*
X134678671Y-93355311D01*
X134656134Y-93421446D01*
X134611080Y-93460485D01*
X134518386Y-93507715D01*
X134352786Y-93628028D01*
X134208028Y-93772786D01*
X134087715Y-93938386D01*
X133994781Y-94120776D01*
X133931522Y-94315465D01*
X133899500Y-94517648D01*
X133899500Y-94722351D01*
X133931522Y-94924534D01*
X133994781Y-95119223D01*
X134087715Y-95301613D01*
X134208028Y-95467213D01*
X134352786Y-95611971D01*
X134483102Y-95706649D01*
X134518390Y-95732287D01*
X134609840Y-95778883D01*
X134611080Y-95779515D01*
X134661876Y-95827490D01*
X134678671Y-95895311D01*
X134656134Y-95961446D01*
X134611080Y-96000485D01*
X134518386Y-96047715D01*
X134352786Y-96168028D01*
X134208028Y-96312786D01*
X134087715Y-96478386D01*
X133994781Y-96660776D01*
X133931522Y-96855465D01*
X133899500Y-97057648D01*
X133899500Y-97262351D01*
X133931522Y-97464534D01*
X133994781Y-97659223D01*
X134087715Y-97841613D01*
X134208028Y-98007213D01*
X134352786Y-98151971D01*
X134462650Y-98231790D01*
X134518390Y-98272287D01*
X134609840Y-98318883D01*
X134611080Y-98319515D01*
X134661876Y-98367490D01*
X134678671Y-98435311D01*
X134656134Y-98501446D01*
X134611080Y-98540485D01*
X134518386Y-98587715D01*
X134352786Y-98708028D01*
X134208028Y-98852786D01*
X134087715Y-99018386D01*
X133994781Y-99200776D01*
X133931522Y-99395465D01*
X133899500Y-99597648D01*
X133899500Y-99802351D01*
X133931522Y-100004534D01*
X133994781Y-100199223D01*
X134087715Y-100381613D01*
X134208028Y-100547213D01*
X134352786Y-100691971D01*
X134489857Y-100791557D01*
X134518390Y-100812287D01*
X134609840Y-100858883D01*
X134611080Y-100859515D01*
X134661876Y-100907490D01*
X134678671Y-100975311D01*
X134656134Y-101041446D01*
X134611080Y-101080485D01*
X134518386Y-101127715D01*
X134352786Y-101248028D01*
X134208028Y-101392786D01*
X134087715Y-101558386D01*
X133994781Y-101740776D01*
X133931522Y-101935465D01*
X133899500Y-102137648D01*
X133899500Y-102342351D01*
X133931522Y-102544534D01*
X133994781Y-102739223D01*
X134087715Y-102921613D01*
X134208028Y-103087213D01*
X134352786Y-103231971D01*
X134489857Y-103331557D01*
X134518390Y-103352287D01*
X134609840Y-103398883D01*
X134611080Y-103399515D01*
X134661876Y-103447490D01*
X134678671Y-103515311D01*
X134656134Y-103581446D01*
X134611080Y-103620485D01*
X134518386Y-103667715D01*
X134352786Y-103788028D01*
X134208028Y-103932786D01*
X134087715Y-104098386D01*
X133994781Y-104280776D01*
X133931522Y-104475465D01*
X133899500Y-104677648D01*
X133899500Y-104882351D01*
X133931522Y-105084534D01*
X133994781Y-105279223D01*
X134087715Y-105461613D01*
X134208028Y-105627213D01*
X134352786Y-105771971D01*
X134489857Y-105871557D01*
X134518390Y-105892287D01*
X134606627Y-105937246D01*
X134611080Y-105939515D01*
X134661876Y-105987490D01*
X134678671Y-106055311D01*
X134656134Y-106121446D01*
X134611080Y-106160485D01*
X134518386Y-106207715D01*
X134352786Y-106328028D01*
X134208028Y-106472786D01*
X134087715Y-106638386D01*
X133994781Y-106820776D01*
X133931522Y-107015465D01*
X133899500Y-107217648D01*
X133899500Y-107422351D01*
X133931522Y-107624534D01*
X133994781Y-107819223D01*
X134087715Y-108001613D01*
X134208028Y-108167213D01*
X134352786Y-108311971D01*
X134507749Y-108424556D01*
X134518390Y-108432287D01*
X134609840Y-108478883D01*
X134611080Y-108479515D01*
X134661876Y-108527490D01*
X134678671Y-108595311D01*
X134656134Y-108661446D01*
X134611080Y-108700485D01*
X134518386Y-108747715D01*
X134352786Y-108868028D01*
X134208028Y-109012786D01*
X134087715Y-109178386D01*
X133994781Y-109360776D01*
X133931522Y-109555465D01*
X133899500Y-109757648D01*
X133899500Y-109962351D01*
X133931522Y-110164534D01*
X133994781Y-110359223D01*
X134087715Y-110541613D01*
X134208028Y-110707213D01*
X134352786Y-110851971D01*
X134507749Y-110964556D01*
X134518390Y-110972287D01*
X134609840Y-111018883D01*
X134611080Y-111019515D01*
X134661876Y-111067490D01*
X134678671Y-111135311D01*
X134656134Y-111201446D01*
X134611080Y-111240485D01*
X134518386Y-111287715D01*
X134352786Y-111408028D01*
X134208028Y-111552786D01*
X134087715Y-111718386D01*
X133994781Y-111900776D01*
X133931522Y-112095465D01*
X133899500Y-112297648D01*
X133899500Y-112502351D01*
X133931522Y-112704534D01*
X133994781Y-112899223D01*
X134087715Y-113081613D01*
X134208028Y-113247213D01*
X134352786Y-113391971D01*
X134507749Y-113504556D01*
X134518390Y-113512287D01*
X134634607Y-113571503D01*
X134700776Y-113605218D01*
X134700778Y-113605218D01*
X134700781Y-113605220D01*
X134805137Y-113639127D01*
X134895465Y-113668477D01*
X134996557Y-113684488D01*
X135097648Y-113700500D01*
X135097649Y-113700500D01*
X135302351Y-113700500D01*
X135302352Y-113700500D01*
X135504534Y-113668477D01*
X135699219Y-113605220D01*
X135881610Y-113512287D01*
X135974590Y-113444732D01*
X136047213Y-113391971D01*
X136047215Y-113391968D01*
X136047219Y-113391966D01*
X136191966Y-113247219D01*
X136191968Y-113247215D01*
X136191971Y-113247213D01*
X136244732Y-113174590D01*
X136312287Y-113081610D01*
X136405220Y-112899219D01*
X136468477Y-112704534D01*
X136500500Y-112502352D01*
X136500500Y-112297648D01*
X136468477Y-112095466D01*
X136405220Y-111900781D01*
X136405218Y-111900778D01*
X136405218Y-111900776D01*
X136371503Y-111834607D01*
X136312287Y-111718390D01*
X136304556Y-111707749D01*
X136191971Y-111552786D01*
X136047213Y-111408028D01*
X135881614Y-111287715D01*
X135875006Y-111284348D01*
X135788917Y-111240483D01*
X135738123Y-111192511D01*
X135721328Y-111124690D01*
X135743865Y-111058555D01*
X135788917Y-111019516D01*
X135881610Y-110972287D01*
X135902770Y-110956913D01*
X136047213Y-110851971D01*
X136047215Y-110851968D01*
X136047219Y-110851966D01*
X136191966Y-110707219D01*
X136191968Y-110707215D01*
X136191971Y-110707213D01*
X136244732Y-110634590D01*
X136312287Y-110541610D01*
X136405220Y-110359219D01*
X136468477Y-110164534D01*
X136500500Y-109962352D01*
X136500500Y-109757648D01*
X136468477Y-109555466D01*
X136405220Y-109360781D01*
X136405218Y-109360778D01*
X136405218Y-109360776D01*
X136371503Y-109294607D01*
X136312287Y-109178390D01*
X136304556Y-109167749D01*
X136191971Y-109012786D01*
X136047213Y-108868028D01*
X135881614Y-108747715D01*
X135875006Y-108744348D01*
X135788917Y-108700483D01*
X135738123Y-108652511D01*
X135721328Y-108584690D01*
X135743865Y-108518555D01*
X135788917Y-108479516D01*
X135881610Y-108432287D01*
X135902770Y-108416913D01*
X136047213Y-108311971D01*
X136047215Y-108311968D01*
X136047219Y-108311966D01*
X136191966Y-108167219D01*
X136191968Y-108167215D01*
X136191971Y-108167213D01*
X136244732Y-108094590D01*
X136312287Y-108001610D01*
X136405220Y-107819219D01*
X136468477Y-107624534D01*
X136500500Y-107422352D01*
X136500500Y-107217648D01*
X136468477Y-107015466D01*
X136405220Y-106820781D01*
X136405218Y-106820778D01*
X136405218Y-106820776D01*
X136371503Y-106754607D01*
X136312287Y-106638390D01*
X136304556Y-106627749D01*
X136191971Y-106472786D01*
X136047213Y-106328028D01*
X135881614Y-106207715D01*
X135875006Y-106204348D01*
X135788917Y-106160483D01*
X135738123Y-106112511D01*
X135721328Y-106044690D01*
X135743865Y-105978555D01*
X135788917Y-105939516D01*
X135881610Y-105892287D01*
X135910145Y-105871555D01*
X136047213Y-105771971D01*
X136047215Y-105771968D01*
X136047219Y-105771966D01*
X136191966Y-105627219D01*
X136191968Y-105627215D01*
X136191971Y-105627213D01*
X136284546Y-105499792D01*
X136312287Y-105461610D01*
X136405220Y-105279219D01*
X136468477Y-105084534D01*
X136500500Y-104882352D01*
X136500500Y-104677648D01*
X136468477Y-104475465D01*
X136405218Y-104280776D01*
X136371503Y-104214607D01*
X136312287Y-104098390D01*
X136304556Y-104087749D01*
X136191971Y-103932786D01*
X136047213Y-103788028D01*
X135881614Y-103667715D01*
X135830111Y-103641473D01*
X135788917Y-103620483D01*
X135738123Y-103572511D01*
X135721328Y-103504690D01*
X135743865Y-103438555D01*
X135788917Y-103399516D01*
X135881610Y-103352287D01*
X135910143Y-103331557D01*
X136047213Y-103231971D01*
X136047215Y-103231968D01*
X136047219Y-103231966D01*
X136191966Y-103087219D01*
X136191968Y-103087215D01*
X136191971Y-103087213D01*
X136277205Y-102969896D01*
X136312287Y-102921610D01*
X136405220Y-102739219D01*
X136468477Y-102544534D01*
X136500500Y-102342352D01*
X136500500Y-102137648D01*
X136468477Y-101935465D01*
X136405218Y-101740776D01*
X136340467Y-101613697D01*
X136312287Y-101558390D01*
X136270521Y-101500903D01*
X136191971Y-101392786D01*
X136047213Y-101248028D01*
X135881614Y-101127715D01*
X135875006Y-101124348D01*
X135788917Y-101080483D01*
X135738123Y-101032511D01*
X135721328Y-100964690D01*
X135743865Y-100898555D01*
X135788917Y-100859516D01*
X135881610Y-100812287D01*
X135910143Y-100791557D01*
X136047213Y-100691971D01*
X136047215Y-100691968D01*
X136047219Y-100691966D01*
X136191966Y-100547219D01*
X136191968Y-100547215D01*
X136191971Y-100547213D01*
X136277205Y-100429896D01*
X136312287Y-100381610D01*
X136405220Y-100199219D01*
X136468477Y-100004534D01*
X136500500Y-99802352D01*
X136500500Y-99597648D01*
X136468477Y-99395465D01*
X136405218Y-99200776D01*
X136371503Y-99134607D01*
X136312287Y-99018390D01*
X136304556Y-99007749D01*
X136191971Y-98852786D01*
X136047213Y-98708028D01*
X135881614Y-98587715D01*
X135875006Y-98584348D01*
X135788917Y-98540483D01*
X135738123Y-98492511D01*
X135721328Y-98424690D01*
X135743865Y-98358555D01*
X135788917Y-98319516D01*
X135881610Y-98272287D01*
X135949787Y-98222754D01*
X136047213Y-98151971D01*
X136047215Y-98151968D01*
X136047219Y-98151966D01*
X136191966Y-98007219D01*
X136191968Y-98007215D01*
X136191971Y-98007213D01*
X136254649Y-97920943D01*
X136312287Y-97841610D01*
X136405220Y-97659219D01*
X136468477Y-97464534D01*
X136500500Y-97262352D01*
X136500500Y-97057648D01*
X136480943Y-96934174D01*
X136468477Y-96855465D01*
X136405218Y-96660776D01*
X136371503Y-96594607D01*
X136312287Y-96478390D01*
X136304556Y-96467749D01*
X136191971Y-96312786D01*
X136047213Y-96168028D01*
X135881614Y-96047715D01*
X135871614Y-96042620D01*
X135788917Y-96000483D01*
X135738123Y-95952511D01*
X135721328Y-95884690D01*
X135743865Y-95818555D01*
X135788917Y-95779516D01*
X135881610Y-95732287D01*
X135916898Y-95706649D01*
X136047213Y-95611971D01*
X136047215Y-95611968D01*
X136047219Y-95611966D01*
X136191966Y-95467219D01*
X136191968Y-95467215D01*
X136191971Y-95467213D01*
X136277205Y-95349896D01*
X136312287Y-95301610D01*
X136405220Y-95119219D01*
X136468477Y-94924534D01*
X136500500Y-94722352D01*
X136500500Y-94517648D01*
X136468477Y-94315465D01*
X136405218Y-94120776D01*
X136371503Y-94054607D01*
X136312287Y-93938390D01*
X136304556Y-93927749D01*
X136191971Y-93772786D01*
X136047213Y-93628028D01*
X135881614Y-93507715D01*
X135875006Y-93504348D01*
X135788917Y-93460483D01*
X135738123Y-93412511D01*
X135721328Y-93344690D01*
X135743865Y-93278555D01*
X135788917Y-93239516D01*
X135881610Y-93192287D01*
X135902770Y-93176913D01*
X136047213Y-93071971D01*
X136047215Y-93071968D01*
X136047219Y-93071966D01*
X136191966Y-92927219D01*
X136191968Y-92927215D01*
X136191971Y-92927213D01*
X136277205Y-92809896D01*
X136312287Y-92761610D01*
X136405220Y-92579219D01*
X136468477Y-92384534D01*
X136500500Y-92182352D01*
X136500500Y-91977648D01*
X136468477Y-91775466D01*
X136405220Y-91580781D01*
X136405218Y-91580778D01*
X136405218Y-91580776D01*
X136371503Y-91514607D01*
X136312287Y-91398390D01*
X136304556Y-91387749D01*
X136191971Y-91232786D01*
X136047213Y-91088028D01*
X135881614Y-90967715D01*
X135875006Y-90964348D01*
X135788917Y-90920483D01*
X135738123Y-90872511D01*
X135721328Y-90804690D01*
X135743865Y-90738555D01*
X135788917Y-90699516D01*
X135881610Y-90652287D01*
X135902770Y-90636913D01*
X136047213Y-90531971D01*
X136047215Y-90531968D01*
X136047219Y-90531966D01*
X136191966Y-90387219D01*
X136191968Y-90387215D01*
X136191971Y-90387213D01*
X136244732Y-90314590D01*
X136312287Y-90221610D01*
X136405220Y-90039219D01*
X136468477Y-89844534D01*
X136500500Y-89642352D01*
X136500500Y-89437648D01*
X136468477Y-89235466D01*
X136405220Y-89040781D01*
X136405218Y-89040778D01*
X136405218Y-89040776D01*
X136371503Y-88974607D01*
X136312287Y-88858390D01*
X136304556Y-88847749D01*
X136191971Y-88692786D01*
X136047213Y-88548028D01*
X135881614Y-88427715D01*
X135875006Y-88424348D01*
X135788917Y-88380483D01*
X135738123Y-88332511D01*
X135721328Y-88264690D01*
X135743865Y-88198555D01*
X135788917Y-88159516D01*
X135881610Y-88112287D01*
X135902770Y-88096913D01*
X136047213Y-87991971D01*
X136047215Y-87991968D01*
X136047219Y-87991966D01*
X136191966Y-87847219D01*
X136191968Y-87847215D01*
X136191971Y-87847213D01*
X136244732Y-87774590D01*
X136312287Y-87681610D01*
X136405220Y-87499219D01*
X136468477Y-87304534D01*
X136500500Y-87102352D01*
X136500500Y-86897648D01*
X136468477Y-86695466D01*
X136405220Y-86500781D01*
X136405218Y-86500778D01*
X136405218Y-86500776D01*
X136371503Y-86434607D01*
X136312287Y-86318390D01*
X136304556Y-86307749D01*
X136191971Y-86152786D01*
X136047213Y-86008028D01*
X135881611Y-85887713D01*
X135788369Y-85840203D01*
X135737574Y-85792229D01*
X135720779Y-85724407D01*
X135743317Y-85658273D01*
X135788371Y-85619234D01*
X135881347Y-85571861D01*
X136046894Y-85451582D01*
X136046895Y-85451582D01*
X136191582Y-85306895D01*
X136191582Y-85306894D01*
X136311859Y-85141349D01*
X136404755Y-84959029D01*
X136467990Y-84764413D01*
X136476609Y-84710000D01*
X135633012Y-84710000D01*
X135665925Y-84652993D01*
X135700000Y-84525826D01*
X135700000Y-84394174D01*
X135665925Y-84267007D01*
X135633012Y-84210000D01*
X136476609Y-84210000D01*
X136467990Y-84155586D01*
X136404755Y-83960970D01*
X136311859Y-83778650D01*
X136191582Y-83613105D01*
X136191582Y-83613104D01*
X136046895Y-83468417D01*
X135881349Y-83348140D01*
X135788370Y-83300765D01*
X135737574Y-83252790D01*
X135720779Y-83184969D01*
X135743316Y-83118835D01*
X135788370Y-83079795D01*
X135788920Y-83079515D01*
X135881610Y-83032287D01*
X135902770Y-83016913D01*
X136047213Y-82911971D01*
X136047215Y-82911968D01*
X136047219Y-82911966D01*
X136191966Y-82767219D01*
X136191968Y-82767215D01*
X136191971Y-82767213D01*
X136252604Y-82683757D01*
X136312287Y-82601610D01*
X136405220Y-82419219D01*
X136468477Y-82224534D01*
X136500500Y-82022352D01*
X136500500Y-81817648D01*
X136475302Y-81658556D01*
X136468477Y-81615465D01*
X136405218Y-81420776D01*
X136363951Y-81339786D01*
X136312287Y-81238390D01*
X136304556Y-81227749D01*
X136191971Y-81072786D01*
X136047213Y-80928028D01*
X135881614Y-80807715D01*
X135875006Y-80804348D01*
X135788917Y-80760483D01*
X135738123Y-80712511D01*
X135721328Y-80644690D01*
X135743865Y-80578555D01*
X135788917Y-80539516D01*
X135881610Y-80492287D01*
X135902770Y-80476913D01*
X136047213Y-80371971D01*
X136047215Y-80371968D01*
X136047219Y-80371966D01*
X136191966Y-80227219D01*
X136191968Y-80227215D01*
X136191971Y-80227213D01*
X136252604Y-80143757D01*
X136312287Y-80061610D01*
X136405220Y-79879219D01*
X136468477Y-79684534D01*
X136500500Y-79482352D01*
X136500500Y-79277648D01*
X136475302Y-79118556D01*
X136468477Y-79075465D01*
X136411296Y-78899481D01*
X136405220Y-78880781D01*
X136405218Y-78880778D01*
X136405218Y-78880776D01*
X136363951Y-78799786D01*
X136312287Y-78698390D01*
X136304556Y-78687749D01*
X136191971Y-78532786D01*
X136047219Y-78388034D01*
X136010930Y-78361669D01*
X135968264Y-78306339D01*
X135962285Y-78236726D01*
X135994890Y-78174931D01*
X136055728Y-78140573D01*
X136070562Y-78138060D01*
X136107483Y-78134091D01*
X136242328Y-78083797D01*
X136242327Y-78083797D01*
X136242331Y-78083796D01*
X136357546Y-77997546D01*
X136443796Y-77882331D01*
X136494091Y-77747483D01*
X136500500Y-77687873D01*
X136500499Y-76737648D01*
X149139500Y-76737648D01*
X149139500Y-76942351D01*
X149171522Y-77144534D01*
X149234781Y-77339223D01*
X149327715Y-77521613D01*
X149448028Y-77687213D01*
X149592786Y-77831971D01*
X149747749Y-77944556D01*
X149758390Y-77952287D01*
X149847212Y-77997544D01*
X149851080Y-77999515D01*
X149901876Y-78047490D01*
X149918671Y-78115311D01*
X149896134Y-78181446D01*
X149851080Y-78220485D01*
X149758386Y-78267715D01*
X149592786Y-78388028D01*
X149448028Y-78532786D01*
X149327715Y-78698386D01*
X149234781Y-78880776D01*
X149171522Y-79075465D01*
X149139500Y-79277648D01*
X149139500Y-79482351D01*
X149171522Y-79684534D01*
X149234781Y-79879223D01*
X149327715Y-80061613D01*
X149448028Y-80227213D01*
X149592786Y-80371971D01*
X149747749Y-80484556D01*
X149758390Y-80492287D01*
X149849840Y-80538883D01*
X149851080Y-80539515D01*
X149901876Y-80587490D01*
X149918671Y-80655311D01*
X149896134Y-80721446D01*
X149851080Y-80760485D01*
X149758386Y-80807715D01*
X149592786Y-80928028D01*
X149448028Y-81072786D01*
X149327715Y-81238386D01*
X149234781Y-81420776D01*
X149171522Y-81615465D01*
X149139500Y-81817648D01*
X149139500Y-82022351D01*
X149171522Y-82224534D01*
X149234781Y-82419223D01*
X149327715Y-82601613D01*
X149448028Y-82767213D01*
X149592786Y-82911971D01*
X149747749Y-83024556D01*
X149758390Y-83032287D01*
X149849840Y-83078883D01*
X149851080Y-83079515D01*
X149901876Y-83127490D01*
X149918671Y-83195311D01*
X149896134Y-83261446D01*
X149851080Y-83300485D01*
X149758386Y-83347715D01*
X149592786Y-83468028D01*
X149448028Y-83612786D01*
X149327715Y-83778386D01*
X149234781Y-83960776D01*
X149171522Y-84155465D01*
X149139500Y-84357648D01*
X149139500Y-84562351D01*
X149171522Y-84764534D01*
X149234781Y-84959223D01*
X149327715Y-85141613D01*
X149448028Y-85307213D01*
X149592786Y-85451971D01*
X149747749Y-85564556D01*
X149758390Y-85572287D01*
X149849840Y-85618883D01*
X149851080Y-85619515D01*
X149901876Y-85667490D01*
X149918671Y-85735311D01*
X149896134Y-85801446D01*
X149851080Y-85840485D01*
X149758386Y-85887715D01*
X149592786Y-86008028D01*
X149448028Y-86152786D01*
X149327715Y-86318386D01*
X149234781Y-86500776D01*
X149171522Y-86695465D01*
X149139500Y-86897648D01*
X149139500Y-87102351D01*
X149171522Y-87304534D01*
X149234781Y-87499223D01*
X149327715Y-87681613D01*
X149448028Y-87847213D01*
X149592786Y-87991971D01*
X149747749Y-88104556D01*
X149758390Y-88112287D01*
X149849840Y-88158883D01*
X149851080Y-88159515D01*
X149901876Y-88207490D01*
X149918671Y-88275311D01*
X149896134Y-88341446D01*
X149851080Y-88380485D01*
X149758386Y-88427715D01*
X149592786Y-88548028D01*
X149448028Y-88692786D01*
X149327715Y-88858386D01*
X149234781Y-89040776D01*
X149171522Y-89235465D01*
X149139500Y-89437648D01*
X149139500Y-89642351D01*
X149171522Y-89844534D01*
X149234781Y-90039223D01*
X149261905Y-90092455D01*
X149320607Y-90207664D01*
X149327715Y-90221613D01*
X149448028Y-90387213D01*
X149592786Y-90531971D01*
X149747749Y-90644556D01*
X149758390Y-90652287D01*
X149849840Y-90698883D01*
X149851080Y-90699515D01*
X149901876Y-90747490D01*
X149918671Y-90815311D01*
X149896134Y-90881446D01*
X149851080Y-90920485D01*
X149758386Y-90967715D01*
X149592786Y-91088028D01*
X149448028Y-91232786D01*
X149327715Y-91398386D01*
X149234781Y-91580776D01*
X149171522Y-91775465D01*
X149139500Y-91977648D01*
X149139500Y-92182351D01*
X149171522Y-92384534D01*
X149234781Y-92579223D01*
X149288652Y-92684949D01*
X149321871Y-92750145D01*
X149327715Y-92761613D01*
X149448028Y-92927213D01*
X149592786Y-93071971D01*
X149747749Y-93184556D01*
X149758390Y-93192287D01*
X149849840Y-93238883D01*
X149851080Y-93239515D01*
X149901876Y-93287490D01*
X149918671Y-93355311D01*
X149896134Y-93421446D01*
X149851080Y-93460485D01*
X149758386Y-93507715D01*
X149592786Y-93628028D01*
X149448028Y-93772786D01*
X149327715Y-93938386D01*
X149234781Y-94120776D01*
X149171522Y-94315465D01*
X149139500Y-94517648D01*
X149139500Y-94722351D01*
X149171522Y-94924534D01*
X149234781Y-95119223D01*
X149327715Y-95301613D01*
X149448028Y-95467213D01*
X149592786Y-95611971D01*
X149723102Y-95706649D01*
X149758390Y-95732287D01*
X149849840Y-95778883D01*
X149851080Y-95779515D01*
X149901876Y-95827490D01*
X149918671Y-95895311D01*
X149896134Y-95961446D01*
X149851080Y-96000485D01*
X149758386Y-96047715D01*
X149592786Y-96168028D01*
X149448028Y-96312786D01*
X149327715Y-96478386D01*
X149234781Y-96660776D01*
X149171522Y-96855465D01*
X149139500Y-97057648D01*
X149139500Y-97262351D01*
X149171522Y-97464534D01*
X149234781Y-97659223D01*
X149327715Y-97841613D01*
X149448028Y-98007213D01*
X149592786Y-98151971D01*
X149702650Y-98231790D01*
X149758390Y-98272287D01*
X149849840Y-98318883D01*
X149851080Y-98319515D01*
X149901876Y-98367490D01*
X149918671Y-98435311D01*
X149896134Y-98501446D01*
X149851080Y-98540485D01*
X149758386Y-98587715D01*
X149592786Y-98708028D01*
X149448028Y-98852786D01*
X149327715Y-99018386D01*
X149234781Y-99200776D01*
X149171522Y-99395465D01*
X149139500Y-99597648D01*
X149139500Y-99802351D01*
X149171522Y-100004534D01*
X149234781Y-100199223D01*
X149327715Y-100381613D01*
X149448028Y-100547213D01*
X149592786Y-100691971D01*
X149729857Y-100791557D01*
X149758390Y-100812287D01*
X149849840Y-100858883D01*
X149851080Y-100859515D01*
X149901876Y-100907490D01*
X149918671Y-100975311D01*
X149896134Y-101041446D01*
X149851080Y-101080485D01*
X149758386Y-101127715D01*
X149592786Y-101248028D01*
X149448028Y-101392786D01*
X149327715Y-101558386D01*
X149234781Y-101740776D01*
X149171522Y-101935465D01*
X149139500Y-102137648D01*
X149139500Y-102342351D01*
X149171522Y-102544534D01*
X149234781Y-102739223D01*
X149327715Y-102921613D01*
X149448028Y-103087213D01*
X149592786Y-103231971D01*
X149729857Y-103331557D01*
X149758390Y-103352287D01*
X149849840Y-103398883D01*
X149851080Y-103399515D01*
X149901876Y-103447490D01*
X149918671Y-103515311D01*
X149896134Y-103581446D01*
X149851080Y-103620485D01*
X149758386Y-103667715D01*
X149592786Y-103788028D01*
X149448028Y-103932786D01*
X149327715Y-104098386D01*
X149234781Y-104280776D01*
X149171522Y-104475465D01*
X149139500Y-104677648D01*
X149139500Y-104882351D01*
X149171522Y-105084534D01*
X149234781Y-105279223D01*
X149327715Y-105461613D01*
X149448028Y-105627213D01*
X149592786Y-105771971D01*
X149729857Y-105871557D01*
X149758390Y-105892287D01*
X149846627Y-105937246D01*
X149851080Y-105939515D01*
X149901876Y-105987490D01*
X149918671Y-106055311D01*
X149896134Y-106121446D01*
X149851080Y-106160485D01*
X149758386Y-106207715D01*
X149592786Y-106328028D01*
X149448028Y-106472786D01*
X149327715Y-106638386D01*
X149234781Y-106820776D01*
X149171522Y-107015465D01*
X149139500Y-107217648D01*
X149139500Y-107422351D01*
X149171522Y-107624534D01*
X149234781Y-107819223D01*
X149327715Y-108001613D01*
X149448028Y-108167213D01*
X149592786Y-108311971D01*
X149747749Y-108424556D01*
X149758390Y-108432287D01*
X149849840Y-108478883D01*
X149851080Y-108479515D01*
X149901876Y-108527490D01*
X149918671Y-108595311D01*
X149896134Y-108661446D01*
X149851080Y-108700485D01*
X149758386Y-108747715D01*
X149592786Y-108868028D01*
X149448028Y-109012786D01*
X149327715Y-109178386D01*
X149234781Y-109360776D01*
X149171522Y-109555465D01*
X149139500Y-109757648D01*
X149139500Y-109962351D01*
X149171522Y-110164534D01*
X149234781Y-110359223D01*
X149327715Y-110541613D01*
X149448028Y-110707213D01*
X149592786Y-110851971D01*
X149747749Y-110964556D01*
X149758390Y-110972287D01*
X149849840Y-111018883D01*
X149851080Y-111019515D01*
X149901876Y-111067490D01*
X149918671Y-111135311D01*
X149896134Y-111201446D01*
X149851080Y-111240485D01*
X149758386Y-111287715D01*
X149592786Y-111408028D01*
X149448028Y-111552786D01*
X149327715Y-111718386D01*
X149234781Y-111900776D01*
X149171522Y-112095465D01*
X149139500Y-112297648D01*
X149139500Y-112502351D01*
X149171522Y-112704534D01*
X149234781Y-112899223D01*
X149327715Y-113081613D01*
X149448028Y-113247213D01*
X149592786Y-113391971D01*
X149747749Y-113504556D01*
X149758390Y-113512287D01*
X149874607Y-113571503D01*
X149940776Y-113605218D01*
X149940778Y-113605218D01*
X149940781Y-113605220D01*
X150045137Y-113639127D01*
X150135465Y-113668477D01*
X150236557Y-113684488D01*
X150337648Y-113700500D01*
X150337649Y-113700500D01*
X150542351Y-113700500D01*
X150542352Y-113700500D01*
X150744534Y-113668477D01*
X150939219Y-113605220D01*
X151121610Y-113512287D01*
X151214590Y-113444732D01*
X151287213Y-113391971D01*
X151287215Y-113391968D01*
X151287219Y-113391966D01*
X151431966Y-113247219D01*
X151431968Y-113247215D01*
X151431971Y-113247213D01*
X151484732Y-113174590D01*
X151552287Y-113081610D01*
X151645220Y-112899219D01*
X151708477Y-112704534D01*
X151740500Y-112502352D01*
X151740500Y-112297648D01*
X151708477Y-112095466D01*
X151645220Y-111900781D01*
X151645218Y-111900778D01*
X151645218Y-111900776D01*
X151611503Y-111834607D01*
X151552287Y-111718390D01*
X151544556Y-111707749D01*
X151431971Y-111552786D01*
X151287213Y-111408028D01*
X151121614Y-111287715D01*
X151115006Y-111284348D01*
X151028917Y-111240483D01*
X150978123Y-111192511D01*
X150961328Y-111124690D01*
X150983865Y-111058555D01*
X151028917Y-111019516D01*
X151121610Y-110972287D01*
X151142770Y-110956913D01*
X151287213Y-110851971D01*
X151287215Y-110851968D01*
X151287219Y-110851966D01*
X151431966Y-110707219D01*
X151431968Y-110707215D01*
X151431971Y-110707213D01*
X151484732Y-110634590D01*
X151552287Y-110541610D01*
X151645220Y-110359219D01*
X151708477Y-110164534D01*
X151740500Y-109962352D01*
X151740500Y-109757648D01*
X151708477Y-109555466D01*
X151645220Y-109360781D01*
X151645218Y-109360778D01*
X151645218Y-109360776D01*
X151611503Y-109294607D01*
X151552287Y-109178390D01*
X151544556Y-109167749D01*
X151431971Y-109012786D01*
X151287213Y-108868028D01*
X151121614Y-108747715D01*
X151115006Y-108744348D01*
X151028917Y-108700483D01*
X150978123Y-108652511D01*
X150961328Y-108584690D01*
X150983865Y-108518555D01*
X151028917Y-108479516D01*
X151121610Y-108432287D01*
X151142770Y-108416913D01*
X151287213Y-108311971D01*
X151287215Y-108311968D01*
X151287219Y-108311966D01*
X151431966Y-108167219D01*
X151431968Y-108167215D01*
X151431971Y-108167213D01*
X151484732Y-108094590D01*
X151552287Y-108001610D01*
X151645220Y-107819219D01*
X151708477Y-107624534D01*
X151740500Y-107422352D01*
X151740500Y-107217648D01*
X151708477Y-107015466D01*
X151645220Y-106820781D01*
X151645218Y-106820778D01*
X151645218Y-106820776D01*
X151611503Y-106754607D01*
X151552287Y-106638390D01*
X151544556Y-106627749D01*
X151431971Y-106472786D01*
X151287213Y-106328028D01*
X151121614Y-106207715D01*
X151115006Y-106204348D01*
X151028917Y-106160483D01*
X150978123Y-106112511D01*
X150961328Y-106044690D01*
X150983865Y-105978555D01*
X151028917Y-105939516D01*
X151121610Y-105892287D01*
X151150145Y-105871555D01*
X151287213Y-105771971D01*
X151287215Y-105771968D01*
X151287219Y-105771966D01*
X151431966Y-105627219D01*
X151431968Y-105627215D01*
X151431971Y-105627213D01*
X151524546Y-105499792D01*
X151552287Y-105461610D01*
X151645220Y-105279219D01*
X151708477Y-105084534D01*
X151740500Y-104882352D01*
X151740500Y-104677648D01*
X151708477Y-104475465D01*
X151645218Y-104280776D01*
X151611503Y-104214607D01*
X151552287Y-104098390D01*
X151544556Y-104087749D01*
X151431971Y-103932786D01*
X151287213Y-103788028D01*
X151121614Y-103667715D01*
X151070111Y-103641473D01*
X151028917Y-103620483D01*
X150978123Y-103572511D01*
X150961328Y-103504690D01*
X150983865Y-103438555D01*
X151028917Y-103399516D01*
X151121610Y-103352287D01*
X151150143Y-103331557D01*
X151287213Y-103231971D01*
X151287215Y-103231968D01*
X151287219Y-103231966D01*
X151431966Y-103087219D01*
X151431968Y-103087215D01*
X151431971Y-103087213D01*
X151517205Y-102969896D01*
X151552287Y-102921610D01*
X151645220Y-102739219D01*
X151708477Y-102544534D01*
X151740500Y-102342352D01*
X151740500Y-102137648D01*
X151708477Y-101935465D01*
X151645218Y-101740776D01*
X151580467Y-101613697D01*
X151552287Y-101558390D01*
X151510521Y-101500903D01*
X151431971Y-101392786D01*
X151287213Y-101248028D01*
X151121614Y-101127715D01*
X151115006Y-101124348D01*
X151028917Y-101080483D01*
X150978123Y-101032511D01*
X150961328Y-100964690D01*
X150983865Y-100898555D01*
X151028917Y-100859516D01*
X151121610Y-100812287D01*
X151150143Y-100791557D01*
X151287213Y-100691971D01*
X151287215Y-100691968D01*
X151287219Y-100691966D01*
X151431966Y-100547219D01*
X151431968Y-100547215D01*
X151431971Y-100547213D01*
X151517205Y-100429896D01*
X151552287Y-100381610D01*
X151645220Y-100199219D01*
X151708477Y-100004534D01*
X151740500Y-99802352D01*
X151740500Y-99597648D01*
X151708477Y-99395465D01*
X151645218Y-99200776D01*
X151611503Y-99134607D01*
X151552287Y-99018390D01*
X151544556Y-99007749D01*
X151431971Y-98852786D01*
X151287213Y-98708028D01*
X151121614Y-98587715D01*
X151115006Y-98584348D01*
X151028917Y-98540483D01*
X150978123Y-98492511D01*
X150961328Y-98424690D01*
X150983865Y-98358555D01*
X151028917Y-98319516D01*
X151121610Y-98272287D01*
X151189787Y-98222754D01*
X151287213Y-98151971D01*
X151287215Y-98151968D01*
X151287219Y-98151966D01*
X151431966Y-98007219D01*
X151431968Y-98007215D01*
X151431971Y-98007213D01*
X151494649Y-97920943D01*
X151552287Y-97841610D01*
X151645220Y-97659219D01*
X151708477Y-97464534D01*
X151740500Y-97262352D01*
X151740500Y-97057648D01*
X151720943Y-96934174D01*
X151708477Y-96855465D01*
X151645218Y-96660776D01*
X151611503Y-96594607D01*
X151552287Y-96478390D01*
X151544556Y-96467749D01*
X151431971Y-96312786D01*
X151287213Y-96168028D01*
X151121614Y-96047715D01*
X151111614Y-96042620D01*
X151028917Y-96000483D01*
X150978123Y-95952511D01*
X150961328Y-95884690D01*
X150983865Y-95818555D01*
X151028917Y-95779516D01*
X151121610Y-95732287D01*
X151156898Y-95706649D01*
X151287213Y-95611971D01*
X151287215Y-95611968D01*
X151287219Y-95611966D01*
X151431966Y-95467219D01*
X151431968Y-95467215D01*
X151431971Y-95467213D01*
X151517205Y-95349896D01*
X151552287Y-95301610D01*
X151645220Y-95119219D01*
X151708477Y-94924534D01*
X151740500Y-94722352D01*
X151740500Y-94517648D01*
X151708477Y-94315465D01*
X151645218Y-94120776D01*
X151611503Y-94054607D01*
X151552287Y-93938390D01*
X151544556Y-93927749D01*
X151431971Y-93772786D01*
X151287213Y-93628028D01*
X151121614Y-93507715D01*
X151115006Y-93504348D01*
X151028917Y-93460483D01*
X150978123Y-93412511D01*
X150961328Y-93344690D01*
X150983865Y-93278555D01*
X151028917Y-93239516D01*
X151121610Y-93192287D01*
X151142770Y-93176913D01*
X151287213Y-93071971D01*
X151287215Y-93071968D01*
X151287219Y-93071966D01*
X151431966Y-92927219D01*
X151431968Y-92927215D01*
X151431971Y-92927213D01*
X151517205Y-92809896D01*
X151552287Y-92761610D01*
X151645220Y-92579219D01*
X151708477Y-92384534D01*
X151740500Y-92182352D01*
X151740500Y-91977648D01*
X151708477Y-91775466D01*
X151645220Y-91580781D01*
X151645218Y-91580778D01*
X151645218Y-91580776D01*
X151611503Y-91514607D01*
X151552287Y-91398390D01*
X151544556Y-91387749D01*
X151431971Y-91232786D01*
X151287213Y-91088028D01*
X151121614Y-90967715D01*
X151115006Y-90964348D01*
X151028917Y-90920483D01*
X150978123Y-90872511D01*
X150961328Y-90804690D01*
X150983865Y-90738555D01*
X151028917Y-90699516D01*
X151121610Y-90652287D01*
X151142770Y-90636913D01*
X151287213Y-90531971D01*
X151287215Y-90531968D01*
X151287219Y-90531966D01*
X151431966Y-90387219D01*
X151431968Y-90387215D01*
X151431971Y-90387213D01*
X151484732Y-90314590D01*
X151552287Y-90221610D01*
X151645220Y-90039219D01*
X151708477Y-89844534D01*
X151740500Y-89642352D01*
X151740500Y-89437648D01*
X151708477Y-89235466D01*
X151645220Y-89040781D01*
X151645218Y-89040778D01*
X151645218Y-89040776D01*
X151611503Y-88974607D01*
X151552287Y-88858390D01*
X151544556Y-88847749D01*
X151431971Y-88692786D01*
X151287213Y-88548028D01*
X151121614Y-88427715D01*
X151115006Y-88424348D01*
X151028917Y-88380483D01*
X150978123Y-88332511D01*
X150961328Y-88264690D01*
X150983865Y-88198555D01*
X151028917Y-88159516D01*
X151121610Y-88112287D01*
X151142770Y-88096913D01*
X151287213Y-87991971D01*
X151287215Y-87991968D01*
X151287219Y-87991966D01*
X151431966Y-87847219D01*
X151431968Y-87847215D01*
X151431971Y-87847213D01*
X151484732Y-87774590D01*
X151552287Y-87681610D01*
X151645220Y-87499219D01*
X151708477Y-87304534D01*
X151740500Y-87102352D01*
X151740500Y-86897648D01*
X151708477Y-86695466D01*
X151645220Y-86500781D01*
X151645218Y-86500778D01*
X151645218Y-86500776D01*
X151611503Y-86434607D01*
X151552287Y-86318390D01*
X151544556Y-86307749D01*
X151431971Y-86152786D01*
X151287213Y-86008028D01*
X151121614Y-85887715D01*
X151115006Y-85884348D01*
X151028917Y-85840483D01*
X150978123Y-85792511D01*
X150961328Y-85724690D01*
X150983865Y-85658555D01*
X151028917Y-85619516D01*
X151121610Y-85572287D01*
X151142770Y-85556913D01*
X151287213Y-85451971D01*
X151287215Y-85451968D01*
X151287219Y-85451966D01*
X151431966Y-85307219D01*
X151431968Y-85307215D01*
X151431971Y-85307213D01*
X151484732Y-85234590D01*
X151552287Y-85141610D01*
X151645220Y-84959219D01*
X151708477Y-84764534D01*
X151740500Y-84562352D01*
X151740500Y-84357648D01*
X151723696Y-84251555D01*
X151708477Y-84155465D01*
X151645218Y-83960776D01*
X151552419Y-83778650D01*
X151552287Y-83778390D01*
X151544556Y-83767749D01*
X151431971Y-83612786D01*
X151287213Y-83468028D01*
X151121614Y-83347715D01*
X151115006Y-83344348D01*
X151028917Y-83300483D01*
X150978123Y-83252511D01*
X150961328Y-83184690D01*
X150983865Y-83118555D01*
X151028917Y-83079516D01*
X151121610Y-83032287D01*
X151142770Y-83016913D01*
X151287213Y-82911971D01*
X151287215Y-82911968D01*
X151287219Y-82911966D01*
X151431966Y-82767219D01*
X151431968Y-82767215D01*
X151431971Y-82767213D01*
X151492604Y-82683757D01*
X151552287Y-82601610D01*
X151645220Y-82419219D01*
X151708477Y-82224534D01*
X151740500Y-82022352D01*
X151740500Y-81817648D01*
X151715302Y-81658556D01*
X151708477Y-81615465D01*
X151645218Y-81420776D01*
X151603951Y-81339786D01*
X151552287Y-81238390D01*
X151544556Y-81227749D01*
X151431971Y-81072786D01*
X151287213Y-80928028D01*
X151121614Y-80807715D01*
X151115006Y-80804348D01*
X151028917Y-80760483D01*
X150978123Y-80712511D01*
X150961328Y-80644690D01*
X150983865Y-80578555D01*
X151028917Y-80539516D01*
X151121610Y-80492287D01*
X151142770Y-80476913D01*
X151287213Y-80371971D01*
X151287215Y-80371968D01*
X151287219Y-80371966D01*
X151431966Y-80227219D01*
X151431968Y-80227215D01*
X151431971Y-80227213D01*
X151552284Y-80061614D01*
X151552285Y-80061613D01*
X151552287Y-80061610D01*
X151559117Y-80048204D01*
X151607091Y-79997409D01*
X151669602Y-79980500D01*
X154079903Y-79980500D01*
X154146942Y-80000185D01*
X154167584Y-80016819D01*
X154363181Y-80212416D01*
X154396666Y-80273739D01*
X154399500Y-80300097D01*
X154399500Y-97913330D01*
X154399499Y-97913348D01*
X154399499Y-98079054D01*
X154399498Y-98079054D01*
X154440424Y-98231789D01*
X154440425Y-98231790D01*
X154463806Y-98272286D01*
X154463807Y-98272288D01*
X154519475Y-98368709D01*
X154519481Y-98368717D01*
X154638349Y-98487585D01*
X154638355Y-98487590D01*
X159666241Y-103515476D01*
X159699726Y-103576799D01*
X159696492Y-103641473D01*
X159682753Y-103683757D01*
X159649500Y-103893713D01*
X159649500Y-104106286D01*
X159682753Y-104316239D01*
X159682753Y-104316241D01*
X159682754Y-104316243D01*
X159746916Y-104513713D01*
X159748444Y-104518414D01*
X159844951Y-104707820D01*
X159969890Y-104879786D01*
X160120213Y-105030109D01*
X160292179Y-105155048D01*
X160292181Y-105155049D01*
X160292184Y-105155051D01*
X160481588Y-105251557D01*
X160683757Y-105317246D01*
X160893713Y-105350500D01*
X160893714Y-105350500D01*
X161106286Y-105350500D01*
X161106287Y-105350500D01*
X161316243Y-105317246D01*
X161358523Y-105303507D01*
X161428362Y-105301511D01*
X161484522Y-105333757D01*
X164363181Y-108212416D01*
X164396666Y-108273739D01*
X164399500Y-108300097D01*
X164399500Y-121699903D01*
X164379815Y-121766942D01*
X164363181Y-121787584D01*
X162787584Y-123363181D01*
X162726261Y-123396666D01*
X162699903Y-123399500D01*
X161474499Y-123399500D01*
X161407460Y-123379815D01*
X161361705Y-123327011D01*
X161350499Y-123275500D01*
X161350499Y-123102129D01*
X161350498Y-123102123D01*
X161350497Y-123102116D01*
X161344091Y-123042517D01*
X161305932Y-122940208D01*
X161293797Y-122907671D01*
X161293793Y-122907664D01*
X161207547Y-122792455D01*
X161207544Y-122792452D01*
X161092335Y-122706206D01*
X161092328Y-122706202D01*
X160957482Y-122655908D01*
X160957483Y-122655908D01*
X160897883Y-122649501D01*
X160897881Y-122649500D01*
X160897873Y-122649500D01*
X160897864Y-122649500D01*
X159102129Y-122649500D01*
X159102123Y-122649501D01*
X159042516Y-122655908D01*
X158907671Y-122706202D01*
X158907664Y-122706206D01*
X158792455Y-122792452D01*
X158792452Y-122792455D01*
X158706206Y-122907664D01*
X158706202Y-122907671D01*
X158655908Y-123042517D01*
X158649501Y-123102116D01*
X158649501Y-123102123D01*
X158649500Y-123102135D01*
X158649500Y-124897870D01*
X158649501Y-124897876D01*
X158655908Y-124957483D01*
X158706202Y-125092328D01*
X158706206Y-125092335D01*
X158792452Y-125207544D01*
X158792455Y-125207547D01*
X158907664Y-125293793D01*
X158907671Y-125293797D01*
X159042517Y-125344091D01*
X159042516Y-125344091D01*
X159049444Y-125344835D01*
X159102127Y-125350500D01*
X160897872Y-125350499D01*
X160957483Y-125344091D01*
X161092331Y-125293796D01*
X161207546Y-125207546D01*
X161293796Y-125092331D01*
X161344091Y-124957483D01*
X161350500Y-124897873D01*
X161350500Y-124724500D01*
X161370185Y-124657461D01*
X161422989Y-124611706D01*
X161474500Y-124600500D01*
X162913331Y-124600500D01*
X162913347Y-124600501D01*
X162920943Y-124600501D01*
X163079054Y-124600501D01*
X163079057Y-124600501D01*
X163231785Y-124559577D01*
X163286796Y-124527816D01*
X163368716Y-124480520D01*
X163480520Y-124368716D01*
X163480520Y-124368714D01*
X163490724Y-124358511D01*
X163490728Y-124358506D01*
X165358506Y-122490728D01*
X165358511Y-122490724D01*
X165368714Y-122480520D01*
X165368716Y-122480520D01*
X165480520Y-122368716D01*
X165531451Y-122280500D01*
X165559577Y-122231785D01*
X165600500Y-122079057D01*
X165600500Y-121920943D01*
X165600500Y-107920943D01*
X165559577Y-107768216D01*
X165559577Y-107768215D01*
X165559577Y-107768214D01*
X165530639Y-107718095D01*
X165530637Y-107718092D01*
X165480520Y-107631284D01*
X165368716Y-107519480D01*
X165368715Y-107519479D01*
X165364385Y-107515149D01*
X165364374Y-107515139D01*
X162333757Y-104484522D01*
X162300272Y-104423199D01*
X162303507Y-104358523D01*
X162317246Y-104316243D01*
X162350500Y-104106287D01*
X162350500Y-103893713D01*
X162317246Y-103683757D01*
X162251557Y-103481588D01*
X162155051Y-103292184D01*
X162155049Y-103292181D01*
X162155048Y-103292179D01*
X162030109Y-103120213D01*
X161879786Y-102969890D01*
X161707820Y-102844951D01*
X161707115Y-102844591D01*
X161699054Y-102840485D01*
X161648259Y-102792512D01*
X161631463Y-102724692D01*
X161653999Y-102658556D01*
X161699054Y-102619515D01*
X161707816Y-102615051D01*
X161804875Y-102544534D01*
X161879786Y-102490109D01*
X161879788Y-102490106D01*
X161879792Y-102490104D01*
X162030104Y-102339792D01*
X162030106Y-102339788D01*
X162030109Y-102339786D01*
X162155048Y-102167820D01*
X162155047Y-102167820D01*
X162155051Y-102167816D01*
X162251557Y-101978412D01*
X162317246Y-101776243D01*
X162350500Y-101566287D01*
X162350500Y-101353713D01*
X162317246Y-101143757D01*
X162251557Y-100941588D01*
X162155051Y-100752184D01*
X162155049Y-100752181D01*
X162155048Y-100752179D01*
X162030109Y-100580213D01*
X161879786Y-100429890D01*
X161707820Y-100304951D01*
X161707115Y-100304591D01*
X161699054Y-100300485D01*
X161648259Y-100252512D01*
X161631463Y-100184692D01*
X161653999Y-100118556D01*
X161699054Y-100079515D01*
X161707816Y-100075051D01*
X161804875Y-100004534D01*
X161879786Y-99950109D01*
X161879788Y-99950106D01*
X161879792Y-99950104D01*
X162030104Y-99799792D01*
X162030106Y-99799788D01*
X162030109Y-99799786D01*
X162155048Y-99627820D01*
X162155047Y-99627820D01*
X162155051Y-99627816D01*
X162251557Y-99438412D01*
X162317246Y-99236243D01*
X162350500Y-99026287D01*
X162350500Y-98813713D01*
X162317246Y-98603757D01*
X162251557Y-98401588D01*
X162155051Y-98212184D01*
X162155049Y-98212181D01*
X162155048Y-98212179D01*
X162030109Y-98040213D01*
X161879786Y-97889890D01*
X161707820Y-97764951D01*
X161707115Y-97764591D01*
X161699054Y-97760485D01*
X161648259Y-97712512D01*
X161631463Y-97644692D01*
X161653999Y-97578556D01*
X161699054Y-97539515D01*
X161707816Y-97535051D01*
X161756060Y-97500000D01*
X161879786Y-97410109D01*
X161879788Y-97410106D01*
X161879792Y-97410104D01*
X162030104Y-97259792D01*
X162030106Y-97259788D01*
X162030109Y-97259786D01*
X162155048Y-97087820D01*
X162155047Y-97087820D01*
X162155051Y-97087816D01*
X162251557Y-96898412D01*
X162317246Y-96696243D01*
X162350500Y-96486287D01*
X162350500Y-96273713D01*
X162317246Y-96063757D01*
X162251557Y-95861588D01*
X162155051Y-95672184D01*
X162155049Y-95672181D01*
X162155048Y-95672179D01*
X162030109Y-95500213D01*
X161879786Y-95349890D01*
X161707820Y-95224951D01*
X161707115Y-95224591D01*
X161699054Y-95220485D01*
X161648259Y-95172512D01*
X161631463Y-95104692D01*
X161653999Y-95038556D01*
X161699054Y-94999515D01*
X161707816Y-94995051D01*
X161804875Y-94924534D01*
X161879786Y-94870109D01*
X161879788Y-94870106D01*
X161879792Y-94870104D01*
X162030104Y-94719792D01*
X162030106Y-94719788D01*
X162030109Y-94719786D01*
X162155048Y-94547820D01*
X162155047Y-94547820D01*
X162155051Y-94547816D01*
X162251557Y-94358412D01*
X162317246Y-94156243D01*
X162350500Y-93946287D01*
X162350500Y-93733713D01*
X162317246Y-93523757D01*
X162251557Y-93321588D01*
X162155051Y-93132184D01*
X162155049Y-93132181D01*
X162155048Y-93132179D01*
X162030109Y-92960213D01*
X161916569Y-92846673D01*
X161883084Y-92785350D01*
X161888068Y-92715658D01*
X161929940Y-92659725D01*
X161960915Y-92642810D01*
X162092331Y-92593796D01*
X162207546Y-92507546D01*
X162293796Y-92392331D01*
X162344091Y-92257483D01*
X162350500Y-92197873D01*
X162350499Y-90402128D01*
X162344091Y-90342517D01*
X162293796Y-90207669D01*
X162293795Y-90207668D01*
X162293793Y-90207664D01*
X162207547Y-90092455D01*
X162207544Y-90092452D01*
X162092335Y-90006206D01*
X162092328Y-90006202D01*
X161957482Y-89955908D01*
X161957483Y-89955908D01*
X161897883Y-89949501D01*
X161897881Y-89949500D01*
X161897873Y-89949500D01*
X161897864Y-89949500D01*
X160102129Y-89949500D01*
X160102123Y-89949501D01*
X160042516Y-89955908D01*
X159907671Y-90006202D01*
X159907664Y-90006206D01*
X159792455Y-90092452D01*
X159792452Y-90092455D01*
X159706206Y-90207664D01*
X159706202Y-90207671D01*
X159655908Y-90342517D01*
X159649501Y-90402116D01*
X159649501Y-90402123D01*
X159649500Y-90402135D01*
X159649500Y-92197870D01*
X159649501Y-92197876D01*
X159655908Y-92257483D01*
X159706202Y-92392328D01*
X159706206Y-92392335D01*
X159792452Y-92507544D01*
X159792455Y-92507547D01*
X159907664Y-92593793D01*
X159907671Y-92593797D01*
X160039082Y-92642810D01*
X160095016Y-92684681D01*
X160119433Y-92750145D01*
X160104582Y-92818418D01*
X160083431Y-92846673D01*
X159969889Y-92960215D01*
X159844951Y-93132179D01*
X159748444Y-93321585D01*
X159748443Y-93321587D01*
X159748443Y-93321588D01*
X159737486Y-93355311D01*
X159682753Y-93523760D01*
X159649500Y-93733713D01*
X159649500Y-93946286D01*
X159682753Y-94156239D01*
X159748444Y-94358414D01*
X159844951Y-94547820D01*
X159969890Y-94719786D01*
X160120213Y-94870109D01*
X160292182Y-94995050D01*
X160300946Y-94999516D01*
X160351742Y-95047491D01*
X160368536Y-95115312D01*
X160345998Y-95181447D01*
X160300946Y-95220484D01*
X160292182Y-95224949D01*
X160120213Y-95349890D01*
X159969890Y-95500213D01*
X159844951Y-95672179D01*
X159748444Y-95861585D01*
X159748443Y-95861587D01*
X159748443Y-95861588D01*
X159737486Y-95895311D01*
X159682753Y-96063760D01*
X159649500Y-96273713D01*
X159649500Y-96486286D01*
X159682753Y-96696239D01*
X159748444Y-96898414D01*
X159844951Y-97087820D01*
X159969890Y-97259786D01*
X160120213Y-97410109D01*
X160292182Y-97535050D01*
X160300946Y-97539516D01*
X160351742Y-97587491D01*
X160368536Y-97655312D01*
X160345998Y-97721447D01*
X160300946Y-97760484D01*
X160292182Y-97764949D01*
X160120213Y-97889890D01*
X159969890Y-98040213D01*
X159844951Y-98212179D01*
X159748444Y-98401585D01*
X159748443Y-98401587D01*
X159748443Y-98401588D01*
X159737486Y-98435311D01*
X159682753Y-98603760D01*
X159649500Y-98813713D01*
X159649500Y-99026286D01*
X159677136Y-99200776D01*
X159682754Y-99236243D01*
X159746916Y-99433713D01*
X159748444Y-99438414D01*
X159844951Y-99627820D01*
X159969890Y-99799786D01*
X160120213Y-99950109D01*
X160292182Y-100075050D01*
X160300946Y-100079516D01*
X160351742Y-100127491D01*
X160368536Y-100195312D01*
X160345998Y-100261447D01*
X160300946Y-100300484D01*
X160292182Y-100304949D01*
X160120213Y-100429890D01*
X159969890Y-100580213D01*
X159844951Y-100752179D01*
X159748444Y-100941585D01*
X159748443Y-100941587D01*
X159748443Y-100941588D01*
X159737486Y-100975311D01*
X159682753Y-101143760D01*
X159649500Y-101353713D01*
X159649500Y-101500903D01*
X159629815Y-101567942D01*
X159577011Y-101613697D01*
X159507853Y-101623641D01*
X159444297Y-101594616D01*
X159437819Y-101588584D01*
X155636819Y-97787584D01*
X155603334Y-97726261D01*
X155600500Y-97699903D01*
X155600500Y-79920945D01*
X155600500Y-79920943D01*
X155559577Y-79768216D01*
X155511264Y-79684534D01*
X155480524Y-79631290D01*
X155480521Y-79631286D01*
X155480520Y-79631284D01*
X155368716Y-79519480D01*
X155368715Y-79519479D01*
X155364385Y-79515149D01*
X155364374Y-79515139D01*
X154867590Y-79018355D01*
X154867588Y-79018352D01*
X154748717Y-78899481D01*
X154748716Y-78899480D01*
X154661904Y-78849360D01*
X154661904Y-78849359D01*
X154661900Y-78849358D01*
X154611785Y-78820423D01*
X154459057Y-78779499D01*
X154300943Y-78779499D01*
X154293347Y-78779499D01*
X154293331Y-78779500D01*
X151669602Y-78779500D01*
X151602563Y-78759815D01*
X151559117Y-78711795D01*
X151552284Y-78698385D01*
X151431971Y-78532786D01*
X151287213Y-78388028D01*
X151121614Y-78267715D01*
X151115006Y-78264348D01*
X151028917Y-78220483D01*
X150978123Y-78172511D01*
X150961328Y-78104690D01*
X150983865Y-78038555D01*
X151028917Y-77999516D01*
X151121610Y-77952287D01*
X151142770Y-77936913D01*
X151287213Y-77831971D01*
X151287215Y-77831968D01*
X151287219Y-77831966D01*
X151431966Y-77687219D01*
X151431968Y-77687215D01*
X151431971Y-77687213D01*
X151492604Y-77603757D01*
X151552287Y-77521610D01*
X151645220Y-77339219D01*
X151708477Y-77144534D01*
X151740500Y-76942352D01*
X151740500Y-76737648D01*
X151719135Y-76602754D01*
X151708477Y-76535465D01*
X151645218Y-76340776D01*
X151611503Y-76274607D01*
X151552287Y-76158390D01*
X151544556Y-76147749D01*
X151431971Y-75992786D01*
X151287213Y-75848028D01*
X151121613Y-75727715D01*
X151121612Y-75727714D01*
X151121610Y-75727713D01*
X151041720Y-75687007D01*
X150939223Y-75634781D01*
X150744534Y-75571522D01*
X150569995Y-75543878D01*
X150542352Y-75539500D01*
X150337648Y-75539500D01*
X150313329Y-75543351D01*
X150135465Y-75571522D01*
X149940776Y-75634781D01*
X149758386Y-75727715D01*
X149592786Y-75848028D01*
X149448028Y-75992786D01*
X149327715Y-76158386D01*
X149234781Y-76340776D01*
X149171522Y-76535465D01*
X149139500Y-76737648D01*
X136500499Y-76737648D01*
X136500499Y-75992128D01*
X136494091Y-75932517D01*
X136474503Y-75880000D01*
X136443797Y-75797671D01*
X136443793Y-75797664D01*
X136357547Y-75682455D01*
X136357544Y-75682452D01*
X136242335Y-75596206D01*
X136242328Y-75596202D01*
X136107482Y-75545908D01*
X136107483Y-75545908D01*
X136047883Y-75539501D01*
X136047881Y-75539500D01*
X136047873Y-75539500D01*
X136047864Y-75539500D01*
X134352129Y-75539500D01*
X134352123Y-75539501D01*
X134292516Y-75545908D01*
X134157671Y-75596202D01*
X134157664Y-75596206D01*
X134042455Y-75682452D01*
X134042452Y-75682455D01*
X133956206Y-75797664D01*
X133956202Y-75797671D01*
X133905908Y-75932517D01*
X133899501Y-75992116D01*
X133899501Y-75992123D01*
X133899500Y-75992135D01*
X121350000Y-75992135D01*
X121350000Y-75630000D01*
X120433012Y-75630000D01*
X120465925Y-75572993D01*
X120500000Y-75445826D01*
X120500000Y-75314174D01*
X120465925Y-75187007D01*
X120433012Y-75130000D01*
X121350000Y-75130000D01*
X121350000Y-74482172D01*
X121349999Y-74482155D01*
X121343598Y-74422627D01*
X121343596Y-74422620D01*
X121293354Y-74287913D01*
X121293350Y-74287906D01*
X121207190Y-74172812D01*
X121207187Y-74172809D01*
X121092093Y-74086649D01*
X121092086Y-74086645D01*
X120957379Y-74036403D01*
X120957372Y-74036401D01*
X120897844Y-74030000D01*
X120250000Y-74030000D01*
X120250000Y-74946988D01*
X120192993Y-74914075D01*
X120065826Y-74880000D01*
X119934174Y-74880000D01*
X119807007Y-74914075D01*
X119750000Y-74946988D01*
X119750000Y-74030000D01*
X119102155Y-74030000D01*
X119042627Y-74036401D01*
X119042620Y-74036403D01*
X118907913Y-74086645D01*
X118907906Y-74086649D01*
X118792812Y-74172809D01*
X118792809Y-74172812D01*
X118706649Y-74287906D01*
X118706645Y-74287913D01*
X118656403Y-74422620D01*
X118656401Y-74422627D01*
X118650000Y-74482155D01*
X118650000Y-75130000D01*
X119566988Y-75130000D01*
X119534075Y-75187007D01*
X119500000Y-75314174D01*
X119500000Y-75445826D01*
X119534075Y-75572993D01*
X119566988Y-75630000D01*
X118650000Y-75630000D01*
X118650000Y-76277844D01*
X118656401Y-76337372D01*
X118656403Y-76337379D01*
X118706645Y-76472086D01*
X118706649Y-76472093D01*
X118792809Y-76587187D01*
X118792812Y-76587190D01*
X118907906Y-76673350D01*
X118907913Y-76673354D01*
X119039470Y-76722422D01*
X119095404Y-76764293D01*
X119119821Y-76829758D01*
X119104969Y-76898031D01*
X119083819Y-76926285D01*
X118969889Y-77040215D01*
X118844951Y-77212179D01*
X118748444Y-77401585D01*
X118682753Y-77603760D01*
X118649500Y-77813713D01*
X110500500Y-77813713D01*
X110500500Y-69624500D01*
X110520185Y-69557461D01*
X110572989Y-69511706D01*
X110624500Y-69500500D01*
X167375500Y-69500500D01*
X167442539Y-69520185D01*
G37*
%TD.AperFunction*%
%TD*%
M02*
